#define ac1_width 16
#define ac1_height 16
static char ac1_bits[] = {
  0x80, 0x07, 0x80, 0x07, 0x60, 0x06, 0x50, 0x16, 0x10, 0x3E, 0x38, 0x06, 
  0x30, 0x06, 0x1F, 0x06, 0x1F, 0x06, 0x18, 0x06, 0x10, 0x16, 0x38, 0x3E, 
  0x20, 0x26, 0x60, 0x06, 0x80, 0x07, 0x80, 0x07, };
