#define ac2_width 16
#define ac2_height 16
static char ac2_bits[] = {
  0x00, 0x18, 0x00, 0x08, 0x00, 0x06, 0xA0, 0x02, 0xF0, 0xC1, 0x30, 0x22, 
  0x38, 0x36, 0x10, 0x0C, 0x18, 0x0C, 0x1C, 0x18, 0x3C, 0x0C, 0xE4, 0x1F, 
  0xFC, 0x05, 0x7C, 0x00, 0x03, 0x00, 0x03, 0x00, };
