#define arch2_width 16
#define arch2_height 16
static char arch2_bits[] = {
  0x80, 0x01, 0x80, 0x01, 0x80, 0x01, 0xA0, 0x01, 0xE0, 0x07, 0xE0, 0x0F, 
  0xF8, 0x0F, 0xF0, 0x1F, 0xF8, 0x1F, 0x7C, 0x3E, 0x7C, 0x3E, 0x1C, 0x38, 
  0x1F, 0x78, 0x1F, 0xFC, 0x03, 0xC0, 0x03, 0xC0, };
