#define arch1_width 16
#define arch1_height 16
static char arch1_bits[] = {
  0x00, 0x00, 0x00, 0x00, 0x80, 0x01, 0x80, 0x01, 0x80, 0x01, 0xC0, 0x03, 
  0xE0, 0x07, 0xE0, 0x07, 0xE0, 0x07, 0x78, 0x1E, 0x70, 0x0E, 0x18, 0x18, 
  0x7C, 0x3E, 0x7C, 0x3E, 0x0C, 0x30, 0x0C, 0x30, };
