#define arrow_right2_width 16
#define arrow_right2_height 16
static char arrow_right2_bits[] = {
  0x00, 0x00, 0x00, 0x00, 0x00, 0x06, 0x00, 0x06, 0x00, 0x1E, 0xFC, 0x1F, 
  0xFC, 0x3F, 0xFC, 0xFF, 0xFC, 0xFF, 0xFC, 0x3F, 0xFC, 0x3F, 0x00, 0x0E, 
  0x00, 0x06, 0x00, 0x06, 0x00, 0x00, 0x00, 0x00, };
