#define arrow_up2_width 16
#define arrow_up2_height 16
static char arrow_up2_bits[] = {
  0x80, 0x01, 0x80, 0x01, 0xE0, 0x07, 0xE0, 0x07, 0xF0, 0x1F, 0xFC, 0x1F, 
  0xFC, 0x3F, 0xE0, 0x07, 0xE0, 0x07, 0xE0, 0x07, 0xE0, 0x07, 0xE0, 0x07, 
  0xE0, 0x07, 0xE0, 0x07, 0x00, 0x00, 0x00, 0x00, };
