#define arrow_right1_width 16
#define arrow_right1_height 16
static char arrow_right1_bits[] = {
  0x00, 0x00, 0x00, 0x00, 0x00, 0x06, 0x00, 0x06, 0x00, 0x18, 0x00, 0x28, 
  0x00, 0x30, 0xFF, 0xFF, 0xFF, 0xFF, 0x00, 0x30, 0x00, 0x30, 0x00, 0x1C, 
  0x00, 0x0A, 0x00, 0x06, 0x00, 0x00, 0x00, 0x00, };
