#define arrow_left1_width 16
#define arrow_left1_height 16
static char arrow_left1_bits[] = {
  0x00, 0x00, 0x00, 0x00, 0x60, 0x00, 0x60, 0x00, 0x30, 0x00, 0x0C, 0x00, 
  0x0C, 0x00, 0xFF, 0xFF, 0xFF, 0xFF, 0x0C, 0x00, 0x04, 0x00, 0x38, 0x00, 
  0x60, 0x00, 0x60, 0x00, 0x00, 0x00, 0x00, 0x00, };
