#define arrow_down2_width 16
#define arrow_down2_height 16
static char arrow_down2_bits[] = {
  0x00, 0x00, 0x00, 0x00, 0xE0, 0x07, 0xE0, 0x07, 0xE0, 0x07, 0xE0, 0x03, 
  0xC0, 0x07, 0xE0, 0x07, 0xE0, 0x07, 0xFC, 0x3F, 0xFC, 0x3F, 0xF8, 0x0F, 
  0xE0, 0x07, 0xE0, 0x07, 0x80, 0x01, 0x80, 0x01, };
