#define arrow_left2_width 16
#define arrow_left2_height 16
static char arrow_left2_bits[] = {
  0x00, 0x00, 0x00, 0x00, 0x60, 0x00, 0x70, 0x00, 0x70, 0x00, 0xFC, 0x3F, 
  0xFC, 0x3F, 0xFF, 0x3F, 0xFF, 0x3F, 0xFC, 0x3F, 0xFC, 0x3F, 0x78, 0x00, 
  0x60, 0x00, 0x60, 0x00, 0x00, 0x00, 0x00, 0x00, };
