#define arrow_down1_width 16
#define arrow_down1_height 16
static char arrow_down1_bits[] = {
  0x80, 0x01, 0x80, 0x01, 0x80, 0x01, 0x80, 0x01, 0x80, 0x01, 0x80, 0x01, 
  0x80, 0x01, 0x80, 0x01, 0x80, 0x01, 0x8C, 0x31, 0x84, 0x31, 0xB8, 0x0D, 
  0xB0, 0x0B, 0xE0, 0x07, 0x80, 0x01, 0x80, 0x01, };
