#define arrow_up1_width 16
#define arrow_up1_height 16
static char arrow_up1_bits[] = {
  0x80, 0x01, 0x80, 0x01, 0xE0, 0x07, 0xE0, 0x07, 0xB0, 0x1D, 0x8C, 0x21, 
  0x8C, 0x31, 0x80, 0x01, 0x80, 0x01, 0x80, 0x01, 0x80, 0x01, 0x80, 0x01, 
  0x80, 0x01, 0x80, 0x01, 0x80, 0x01, 0x80, 0x01, };
