#define bag_width 16
#define bag_height 16
static char bag_bits[] = {
  0x00, 0x00, 0x00, 0x00, 0xE0, 0x07, 0xE0, 0x07, 0x60, 0x06, 0xEE, 0xDF, 
  0xFF, 0xFF, 0x3B, 0xCC, 0x13, 0xCC, 0x13, 0xD8, 0x1B, 0xC8, 0x33, 0xD8, 
  0x13, 0xC8, 0x1B, 0xCC, 0xFF, 0xFF, 0xFF, 0xFF, };
