#define bail_width 16
#define bail_height 16
static char bail_bits[] = {
  0xE0, 0x07, 0xE0, 0x07, 0x10, 0x08, 0x18, 0x18, 0x10, 0x08, 0x38, 0x1C, 
  0x10, 0x08, 0xE0, 0x07, 0xE0, 0x07, 0x18, 0x08, 0x10, 0x18, 0x0C, 0x30, 
  0x05, 0xC0, 0x03, 0xC0, 0xFF, 0xFF, 0xFF, 0xFF, };
