#define balloon_width 16
#define balloon_height 16
static char balloon_bits[] = {
  0xFE, 0x3F, 0xFC, 0x7F, 0x03, 0xC0, 0x03, 0xC0, 0x03, 0xC0, 0x03, 0xC0, 
  0x03, 0xC0, 0x03, 0xC0, 0x03, 0xC0, 0xFC, 0x31, 0xFC, 0x31, 0x00, 0x36, 
  0x00, 0x38, 0x00, 0x3C, 0x00, 0x30, 0x00, 0x30, };
