#define battery_horz2_width 16
#define battery_horz2_height 16
static char battery_horz2_bits[] = {
  0x00, 0x00, 0x00, 0x00, 0x00, 0x00, 0x92, 0x04, 0xFF, 0x3F, 0x13, 0x30, 
  0x03, 0x30, 0x73, 0xE0, 0x73, 0xF0, 0x03, 0x20, 0x8B, 0x30, 0xFF, 0x3F, 
  0x44, 0x02, 0x00, 0x00, 0x00, 0x00, 0x00, 0x00, };
