#define battery_horz3_width 16
#define battery_horz3_height 16
static char battery_horz3_bits[] = {
  0x00, 0x00, 0x00, 0x00, 0x00, 0x00, 0x92, 0x04, 0xFF, 0x3F, 0x13, 0x30, 
  0x03, 0x30, 0xF3, 0xE7, 0xF3, 0xE7, 0x03, 0x30, 0x8B, 0x34, 0xFF, 0x3F, 
  0x44, 0x02, 0x00, 0x00, 0x00, 0x00, 0x00, 0x00, };
