#define battery_horz1_width 16
#define battery_horz1_height 16
static char battery_horz1_bits[] = {
  0x00, 0x00, 0x00, 0x00, 0x00, 0x00, 0x94, 0x02, 0xFF, 0x3F, 0x13, 0x32, 
  0x03, 0x30, 0x03, 0xE0, 0x03, 0xF0, 0x03, 0x20, 0x8B, 0x30, 0xFF, 0x3F, 
  0x24, 0x04, 0x00, 0x00, 0x00, 0x00, 0x00, 0x00, };
