#define battery_vert1_width 16
#define battery_vert1_height 16
static char battery_vert1_bits[] = {
  0x80, 0x01, 0x80, 0x01, 0xF0, 0x0F, 0x78, 0x1D, 0x10, 0x08, 0x30, 0x0C, 
  0x18, 0x08, 0x10, 0x18, 0x10, 0x0C, 0x18, 0x18, 0x10, 0x08, 0x30, 0x18, 
  0x10, 0x08, 0x18, 0x08, 0xF0, 0x0F, 0xF0, 0x1F, };
