#define battery_vert2_width 16
#define battery_vert2_height 16
static char battery_vert2_bits[] = {
  0x80, 0x01, 0x80, 0x01, 0xF0, 0x0F, 0x70, 0x0D, 0x10, 0x18, 0x38, 0x08, 
  0x10, 0x0C, 0x10, 0x08, 0x10, 0x0C, 0x98, 0x19, 0x90, 0x09, 0xB0, 0x09, 
  0x10, 0x18, 0x10, 0x0C, 0xF8, 0x0F, 0xF0, 0x0F, };
