#define bell2_width 16
#define bell2_height 16
static char bell2_bits[] = {
  0x80, 0x01, 0x80, 0x01, 0x60, 0x06, 0x50, 0x0A, 0x30, 0x0C, 0x18, 0x18, 
  0x30, 0x08, 0x0C, 0x30, 0x06, 0x30, 0x0C, 0x20, 0x06, 0x60, 0x03, 0xC0, 
  0xBF, 0xFE, 0xFF, 0xFF, 0xE0, 0x87, 0xE0, 0x07, };
