#define bell1_width 16
#define bell1_height 16
static char bell1_bits[] = {
  0x00, 0x00, 0x00, 0x00, 0xFC, 0x01, 0xDC, 0x01, 0x0C, 0x36, 0x04, 0x38, 
  0x0C, 0x3C, 0x0C, 0x18, 0x04, 0x18, 0x18, 0x06, 0x90, 0x16, 0xE0, 0x39, 
  0xF0, 0x3C, 0x70, 0x38, 0x00, 0x00, 0x00, 0x00, };
