#define binder_width 16
#define binder_height 16
static char binder_bits[] = {
  0xFF, 0xFF, 0xFF, 0xFF, 0x03, 0xC0, 0x03, 0xC2, 0x8C, 0xCF, 0x01, 0xC2, 
  0x03, 0xC0, 0x8C, 0xCF, 0x8C, 0xCF, 0x03, 0xC0, 0x03, 0xC4, 0x84, 0xCF, 
  0x02, 0xC4, 0x03, 0xC0, 0xFF, 0xFF, 0xFF, 0xFF, };
