#define box_width 16
#define box_height 16
static char box_bits[] = {
  0xE0, 0xFF, 0xE0, 0xFF, 0x10, 0xF0, 0x18, 0xE0, 0x0C, 0xD8, 0xFF, 0xC7, 
  0xFF, 0xC7, 0x03, 0xC6, 0x03, 0xC6, 0x03, 0xC6, 0x03, 0xC6, 0x03, 0xC6, 
  0x03, 0x26, 0x03, 0x36, 0xFF, 0x1F, 0xFF, 0x0F, };
