#define box_plus_width 16
#define box_plus_height 16
static char box_plus_bits[] = {
  0xFF, 0xFF, 0xFF, 0xFF, 0x03, 0xC0, 0x03, 0xC0, 0x83, 0xC1, 0x83, 0xC1, 
  0x83, 0xC1, 0xF3, 0xCF, 0xF3, 0xCF, 0x83, 0xC1, 0x83, 0xC1, 0x83, 0xC1, 
  0x03, 0xC0, 0x03, 0xC0, 0xFF, 0xFF, 0xFF, 0xFF, };
