#define box_in_width 16
#define box_in_height 16
static char box_in_bits[] = {
  0xFF, 0xFF, 0xFF, 0xFF, 0x03, 0xC0, 0x03, 0xC0, 0x83, 0xC1, 0x00, 0xC2, 
  0x00, 0xC6, 0xFF, 0xCF, 0xFF, 0xCF, 0x00, 0xC6, 0x00, 0xC3, 0x83, 0xC1, 
  0x03, 0xC0, 0x03, 0xC0, 0xFF, 0xFF, 0xFF, 0xFF, };
