#define box_out_width 16
#define box_out_height 16
static char box_out_bits[] = {
  0x7F, 0x00, 0x7F, 0x00, 0x60, 0x00, 0x60, 0x08, 0x60, 0x18, 0x00, 0x20, 
  0x00, 0x30, 0xFF, 0xFF, 0xFF, 0xFF, 0x00, 0x30, 0x00, 0x28, 0x60, 0x18, 
  0x60, 0x00, 0x60, 0x00, 0x7F, 0x00, 0x7F, 0x00, };
