#define brightness_width 16
#define brightness_height 16
static char brightness_bits[] = {
  0xF0, 0x0F, 0xF8, 0x0F, 0xFC, 0x21, 0xFE, 0xA1, 0xFF, 0xC1, 0xFF, 0xC1, 
  0xFF, 0xC1, 0xFF, 0xC1, 0xFF, 0xC1, 0xFF, 0xC1, 0xFF, 0xC1, 0xFF, 0xC1, 
  0xFE, 0x41, 0xFC, 0x31, 0xF8, 0x0F, 0xF0, 0x1F, };
