#define bug_width 16
#define bug_height 16
static char bug_bits[] = {
  0x0F, 0xF0, 0x07, 0xE0, 0x10, 0x08, 0xA0, 0x06, 0xE0, 0x07, 0xC0, 0x03, 
  0xE0, 0x07, 0xE7, 0xE7, 0xE7, 0xF7, 0xF8, 0x0F, 0xF8, 0x1F, 0xFC, 0x3F, 
  0xF9, 0xBF, 0xFB, 0xCF, 0xE3, 0xC7, 0xE3, 0xC7, };
