#define calculator_width 16
#define calculator_height 16
static char calculator_bits[] = {
  0xFF, 0xFF, 0xFF, 0xFF, 0x03, 0xC0, 0x93, 0xC8, 0xF3, 0xCF, 0x13, 0xC2, 
  0x03, 0xC0, 0x93, 0xC9, 0x93, 0xC9, 0x03, 0xC0, 0x03, 0xC0, 0x9B, 0xC9, 
  0x03, 0xC0, 0x03, 0xC0, 0xFF, 0xFF, 0xFF, 0xFF, };
