#define card_width 16
#define card_height 16
static char card_bits[] = {
  0x00, 0x00, 0x00, 0x00, 0xFF, 0xFF, 0x6F, 0xF7, 0x03, 0xC0, 0x93, 0xCF, 
  0xBB, 0xCF, 0x13, 0xC0, 0x1B, 0xC0, 0x93, 0xCF, 0x93, 0xCF, 0x03, 0xC0, 
  0x13, 0xC8, 0x1B, 0xD8, 0xE7, 0xF3, 0xEF, 0xF7, };
