#define cart_plus_width 16
#define cart_plus_height 16
static char cart_plus_bits[] = {
  0x03, 0x06, 0x03, 0x06, 0x8C, 0x1F, 0x14, 0x0F, 0x30, 0xC6, 0x10, 0xC0, 
  0x18, 0xC0, 0xB0, 0xC9, 0x90, 0xD9, 0xF8, 0x3F, 0xF0, 0x3F, 0x00, 0x00, 
  0x14, 0xC0, 0x3C, 0xF0, 0x1C, 0xF0, 0x1C, 0xF0, };
