#define cart_width 16
#define cart_height 16
static char cart_bits[] = {
  0x03, 0x00, 0x03, 0x00, 0x0C, 0x00, 0xA4, 0x4A, 0xF0, 0xFF, 0xB0, 0xDD, 
  0xB8, 0xC9, 0x90, 0xD9, 0xB8, 0xD9, 0xF0, 0x3F, 0x70, 0x2F, 0x00, 0x00, 
  0x14, 0xA0, 0x3C, 0xF0, 0x1C, 0xF0, 0x1C, 0xF0, };
