#define cd_width 16
#define cd_height 16
static char cd_bits[] = {
  0xE0, 0x07, 0xE0, 0x07, 0x10, 0x18, 0x18, 0x08, 0x0C, 0x70, 0x83, 0xC1, 
  0x83, 0xC1, 0x63, 0xC6, 0x63, 0xC6, 0x83, 0xC1, 0x83, 0xE1, 0x0C, 0x30, 
  0x18, 0x08, 0x18, 0x18, 0xE0, 0x07, 0xE0, 0x07, };
