#define cert_width 16
#define cert_height 16
static char cert_bits[] = {
  0xFF, 0xFF, 0xFF, 0xFF, 0xF3, 0xCF, 0xF3, 0xCF, 0xF3, 0xDF, 0xFB, 0xCF, 
  0xF3, 0xCF, 0x93, 0xCD, 0x93, 0xC9, 0x03, 0xC0, 0x03, 0xC0, 0x03, 0xCE, 
  0x01, 0xC0, 0x03, 0xC0, 0xFF, 0xFF, 0xFF, 0xFF, };
