#define chain_width 16
#define chain_height 16
static char chain_bits[] = {
  0x00, 0x3E, 0x00, 0x7E, 0x80, 0xC1, 0x80, 0xC1, 0x80, 0xC1, 0x80, 0xC1, 
  0x80, 0xC1, 0x7C, 0x3E, 0x7C, 0x3E, 0x83, 0x01, 0x83, 0x01, 0x83, 0x01, 
  0x83, 0x01, 0x83, 0x01, 0x7D, 0x00, 0x7C, 0x00, };
