#define check_width 16
#define check_height 16
static char check_bits[] = {
  0x00, 0x00, 0x00, 0x00, 0x00, 0x00, 0x00, 0x00, 0x00, 0x00, 0x00, 0xC0, 
  0x00, 0xC0, 0x00, 0x30, 0x00, 0x30, 0x03, 0x0C, 0x03, 0x0A, 0x0C, 0x06, 
  0x9C, 0x03, 0xB0, 0x01, 0x60, 0x00, 0x60, 0x00, };
