#define clip_width 16
#define clip_height 16
static char clip_bits[] = {
  0xFC, 0x07, 0xFC, 0x07, 0x0C, 0x06, 0x2C, 0x06, 0x6C, 0x06, 0x64, 0x26, 
  0x6C, 0x32, 0x6C, 0x36, 0x64, 0x26, 0x6C, 0x36, 0xEC, 0x37, 0xE4, 0x37, 
  0x4C, 0x22, 0x0C, 0x30, 0xFC, 0x3F, 0xFC, 0x3F, };
