#define clock2_width 16
#define clock2_height 16
static char clock2_bits[] = {
  0xF0, 0x0F, 0xF8, 0x1F, 0x0C, 0x20, 0x05, 0x60, 0x83, 0xC1, 0x83, 0xC1, 
  0x83, 0xC1, 0x83, 0xCF, 0x83, 0xCF, 0x03, 0xC0, 0x03, 0xC0, 0x03, 0xC0, 
  0x05, 0x20, 0x0C, 0x30, 0xF8, 0x1F, 0xF0, 0x0F, };
