#define clock1_width 16
#define clock1_height 16
static char clock1_bits[] = {
  0xF0, 0x0F, 0xF8, 0x0F, 0xFC, 0x23, 0xFC, 0x77, 0xFF, 0xF9, 0x7F, 0xFE, 
  0x7F, 0xFE, 0x7F, 0xC0, 0x7F, 0xC0, 0xFF, 0xFF, 0xFF, 0xFF, 0xFF, 0xFF, 
  0xFE, 0x7F, 0xFC, 0x3F, 0xF8, 0x0F, 0xF0, 0x0F, };
