#define clockwise_width 16
#define clockwise_height 16
static char clockwise_bits[] = {
  0xE0, 0xC7, 0xE0, 0xC7, 0x10, 0xC8, 0x18, 0xF8, 0x0C, 0xF0, 0x03, 0xFE, 
  0x03, 0xFE, 0x03, 0x00, 0x03, 0x00, 0x03, 0xC0, 0x03, 0xC0, 0x0C, 0x30, 
  0x18, 0x38, 0x10, 0x08, 0xE0, 0x03, 0xE0, 0x07, };
