#define cpu_width 16
#define cpu_height 16
static char cpu_bits[] = {
  0xCF, 0xE7, 0xC7, 0xE3, 0x03, 0xC0, 0x90, 0x88, 0xF0, 0x0F, 0xF9, 0x4F, 
  0xF3, 0xCF, 0xF3, 0xCF, 0xFB, 0xDF, 0xF3, 0xCF, 0xF2, 0x8F, 0xF8, 0x0F, 
  0x40, 0x80, 0x03, 0xC0, 0xC7, 0xE3, 0xE7, 0xF7, };
