#define delete_width 16
#define delete_height 16
static char delete_bits[] = {
  0x03, 0xC0, 0x03, 0xC0, 0x0C, 0x30, 0x1C, 0x38, 0x30, 0x0C, 0x60, 0x06, 
  0x60, 0x06, 0x80, 0x01, 0x80, 0x01, 0x60, 0x06, 0x60, 0x0E, 0x38, 0x18, 
  0x0C, 0x28, 0x04, 0x30, 0x03, 0xC0, 0x03, 0xC0, };
