#define denied1_width 16
#define denied1_height 16
static char denied1_bits[] = {
  0xE0, 0x07, 0xE0, 0x07, 0x10, 0x18, 0x18, 0x08, 0x0C, 0x30, 0x07, 0xC0, 
  0x03, 0xC0, 0xF3, 0xCF, 0xF3, 0xCF, 0x03, 0xC0, 0x03, 0xC0, 0x0C, 0x30, 
  0x18, 0x38, 0x10, 0x08, 0xE0, 0x03, 0xE0, 0x07, };
