#define denied2_width 16
#define denied2_height 16
static char denied2_bits[] = {
  0xE0, 0x07, 0xE0, 0x07, 0x10, 0x18, 0x18, 0x09, 0x8C, 0x31, 0x83, 0xC1, 
  0x83, 0xC1, 0x83, 0xC1, 0x83, 0xC1, 0x83, 0xC1, 0x83, 0xC1, 0x8C, 0x31, 
  0x18, 0x39, 0x10, 0x08, 0xE0, 0x03, 0xE0, 0x07, };
