#define diagram_width 16
#define diagram_height 16
static char diagram_bits[] = {
  0xFC, 0x3F, 0xFC, 0x3F, 0x0C, 0x30, 0x9C, 0x34, 0xFC, 0x3F, 0x38, 0x1C, 
  0x30, 0x0C, 0x10, 0x08, 0x18, 0x18, 0x7F, 0xFE, 0x77, 0xFE, 0x63, 0xC6, 
  0x77, 0xEE, 0x7F, 0xFE, 0x00, 0x00, 0x00, 0x00, };
