#define diskette_width 16
#define diskette_height 16
static char diskette_bits[] = {
  0xFF, 0xFF, 0xFF, 0xFF, 0x03, 0xC0, 0x03, 0xC0, 0x03, 0xC0, 0x03, 0xC0, 
  0x03, 0xC0, 0x03, 0xC0, 0x03, 0xC0, 0xFB, 0xDF, 0xF3, 0xCF, 0x9B, 0xDF, 
  0x93, 0xCF, 0x93, 0xCF, 0xFE, 0xFF, 0xFC, 0xFF, };
