#define dotbox_width 16
#define dotbox_height 16
static char dotbox_bits[] = {
  0xFC, 0x3F, 0xFC, 0x3F, 0x0C, 0x70, 0x0C, 0x30, 0x0C, 0x20, 0x04, 0x30, 
  0x0C, 0x30, 0x0C, 0x70, 0x0C, 0x30, 0x04, 0x20, 0x0C, 0x70, 0x8E, 0x31, 
  0x0C, 0x20, 0x0C, 0x30, 0xFC, 0x3F, 0xFC, 0x7F, };
