#define exclamation2_width 16
#define exclamation2_height 16
static char exclamation2_bits[] = {
  0x80, 0x01, 0x80, 0x01, 0x60, 0x06, 0x60, 0x06, 0x60, 0x06, 0x90, 0x0B, 
  0xB8, 0x09, 0x90, 0x19, 0x98, 0x19, 0x04, 0x20, 0x0C, 0x30, 0x8C, 0x31, 
  0x03, 0xC0, 0x03, 0xC0, 0xFF, 0xFF, 0xFF, 0xFF, };
