#define exclamation1_width 16
#define exclamation1_height 16
static char exclamation1_bits[] = {
  0xFF, 0xFF, 0xFF, 0xFF, 0x03, 0xC0, 0x03, 0xC0, 0x83, 0xC1, 0x83, 0xC1, 
  0x83, 0xC1, 0x83, 0xC1, 0x83, 0xC1, 0x03, 0xC0, 0x03, 0xC0, 0x83, 0xC1, 
  0x03, 0xC0, 0x03, 0xC0, 0xFF, 0xFF, 0xFF, 0xFF, };
