#define fan_width 16
#define fan_height 16
static char fan_bits[] = {
  0x1C, 0x20, 0x1C, 0x20, 0xE3, 0xC7, 0xE1, 0xC7, 0xF0, 0xCF, 0x3C, 0x3C, 
  0x1C, 0x38, 0x1C, 0x38, 0x1C, 0x38, 0x1C, 0x38, 0x3C, 0x1C, 0xF3, 0x0F, 
  0xE3, 0x87, 0xC3, 0xC7, 0x04, 0x3C, 0x04, 0x38, };
