#define file1_width 16
#define file1_height 16
static char file1_bits[] = {
  0xFF, 0x01, 0xFF, 0x01, 0x83, 0x01, 0x83, 0x55, 0x83, 0xFF, 0x03, 0xC2, 
  0x03, 0xC0, 0x03, 0xC0, 0x03, 0xC0, 0x03, 0xC0, 0x03, 0xC0, 0x03, 0xC0, 
  0x03, 0xC0, 0x03, 0xC0, 0xFF, 0xFF, 0xFF, 0xFF, };
