#define file2_width 16
#define file2_height 16
static char file2_bits[] = {
  0xFF, 0x1F, 0xFF, 0x0F, 0x03, 0x38, 0x03, 0xF8, 0x03, 0xF8, 0x03, 0xE0, 
  0x03, 0xC0, 0x03, 0xC0, 0x03, 0xC0, 0x03, 0xC0, 0x03, 0xC0, 0x03, 0xC0, 
  0x03, 0xC0, 0x03, 0xC0, 0xFF, 0xFF, 0xFF, 0xFF, };
