#define flag_width 16
#define flag_height 16
static char flag_bits[] = {
  0xFF, 0xFF, 0xFF, 0xFF, 0x03, 0xC0, 0x03, 0xC0, 0x03, 0xC0, 0x03, 0xC0, 
  0x03, 0xC0, 0xFF, 0xFF, 0xFF, 0xFF, 0x03, 0x00, 0x03, 0x00, 0x03, 0x00, 
  0x03, 0x00, 0x03, 0x00, 0x03, 0x00, 0x03, 0x00, };
