#define flask1_width 16
#define flask1_height 16
static char flask1_bits[] = {
  0x00, 0x00, 0x00, 0x00, 0xE0, 0x07, 0xE0, 0x07, 0x60, 0x06, 0x60, 0x06, 
  0x60, 0x06, 0x60, 0x06, 0x60, 0x06, 0x10, 0x18, 0x18, 0x18, 0x0C, 0x30, 
  0x03, 0xC0, 0x03, 0xC0, 0xFF, 0xFF, 0xFF, 0xFF, };
