#define flask2_width 16
#define flask2_height 16
static char flask2_bits[] = {
  0x00, 0x00, 0x00, 0x00, 0xE0, 0x07, 0xE0, 0x07, 0x60, 0x06, 0x60, 0x06, 
  0x60, 0x06, 0x60, 0x06, 0x60, 0x06, 0x10, 0x08, 0x58, 0x1A, 0xEC, 0x37, 
  0x45, 0xC2, 0x03, 0xC0, 0xFF, 0xFF, 0xFF, 0xFF, };
