#define fox_width 16
#define fox_height 16
static char fox_bits[] = {
  0x03, 0xC0, 0x03, 0xC0, 0x07, 0xF0, 0x2B, 0xC8, 0xF3, 0xCF, 0xF3, 0xDF, 
  0xF3, 0xCF, 0xFF, 0xFF, 0xFF, 0xFF, 0xE3, 0xC7, 0xE3, 0xC7, 0xFF, 0xFF, 
  0xFE, 0x7F, 0xFC, 0x3F, 0xF9, 0xCF, 0xF3, 0xCF, };
