#define game_width 16
#define game_height 16
static char game_bits[] = {
  0x10, 0x18, 0x10, 0x08, 0x60, 0x06, 0xE0, 0x06, 0xF0, 0x0F, 0xFC, 0x3F, 
  0xFC, 0x3F, 0x9F, 0xF9, 0x9F, 0xF9, 0xF3, 0xDF, 0xF1, 0x8F, 0xF8, 0x0F, 
  0x30, 0x1D, 0x10, 0x08, 0x60, 0x02, 0x40, 0x06, };
