#define ghost_width 16
#define ghost_height 16
static char ghost_bits[] = {
  0xE0, 0x07, 0xE0, 0x07, 0xF0, 0x0F, 0xF8, 0x1F, 0xFC, 0x3F, 0xBC, 0x3D, 
  0x9C, 0x39, 0xFC, 0x3F, 0xFC, 0x3F, 0xFC, 0x3F, 0xFC, 0x3F, 0xFC, 0x3F, 
  0xFC, 0x3F, 0xFC, 0x3F, 0x6C, 0x36, 0x64, 0x26, };
