#define headphones_width 16
#define headphones_height 16
static char headphones_bits[] = {
  0xF0, 0x0F, 0xF8, 0x1F, 0x0C, 0x30, 0x02, 0x40, 0x03, 0xC0, 0x03, 0xC0, 
  0x03, 0xC0, 0x03, 0xC0, 0x03, 0xC0, 0x13, 0xD8, 0x1B, 0xD8, 0x3F, 0xF8, 
  0x1F, 0x78, 0x3C, 0x3C, 0x1C, 0x3C, 0x1C, 0x38, };
