#define heart_plus_width 16
#define heart_plus_height 16
static char heart_plus_bits[] = {
  0x7C, 0x3E, 0x7C, 0x7F, 0x83, 0xC1, 0x01, 0xC0, 0x00, 0xC0, 0x04, 0xC0, 
  0x0C, 0xC0, 0x1F, 0xC0, 0x1F, 0xC0, 0x0C, 0x30, 0x04, 0x28, 0x00, 0x18, 
  0x40, 0x06, 0x60, 0x06, 0x80, 0x01, 0x80, 0x01, };
