#define house_width 16
#define house_height 16
static char house_bits[] = {
  0x80, 0x31, 0x80, 0x21, 0x60, 0x36, 0x50, 0x3A, 0x10, 0x0C, 0x1C, 0x30, 
  0x0C, 0x30, 0x03, 0xC0, 0x03, 0xC0, 0xEC, 0x37, 0xEC, 0x37, 0x64, 0x36, 
  0x6C, 0x26, 0x6C, 0x36, 0xFE, 0x3F, 0xFC, 0x3F, };
