#define info_width 16
#define info_height 16
static char info_bits[] = {
  0xE0, 0x07, 0xE0, 0x07, 0xE0, 0x07, 0xC0, 0x03, 0x00, 0x00, 0xF8, 0x03, 
  0xF0, 0x07, 0xE0, 0x07, 0xE0, 0x07, 0xE0, 0x07, 0xE0, 0x07, 0xE0, 0x07, 
  0xE0, 0x07, 0xE0, 0x07, 0xF0, 0x0F, 0xF8, 0x1F, };
