#define jar1_width 16
#define jar1_height 16
static char jar1_bits[] = {
  0xF0, 0x1F, 0xF8, 0x0F, 0xF0, 0x1F, 0xD8, 0x07, 0x0C, 0x30, 0x03, 0xC0, 
  0x03, 0xC0, 0x03, 0xC0, 0x03, 0xC0, 0x03, 0xC0, 0x03, 0xC0, 0x03, 0xC0, 
  0x03, 0xC0, 0x03, 0xC0, 0xFF, 0xFF, 0xFF, 0xFF, };
