#define jar3_width 16
#define jar3_height 16
static char jar3_bits[] = {
  0xF0, 0x1F, 0xF0, 0x0F, 0xF0, 0x0F, 0x58, 0x15, 0x0C, 0x20, 0xC2, 0xC3, 
  0xC3, 0xC3, 0xE3, 0xC7, 0xE3, 0xC7, 0xF3, 0xCF, 0xF3, 0xCF, 0xFB, 0xCF, 
  0x43, 0xC4, 0x03, 0xC0, 0xFF, 0xFF, 0xFF, 0xFF, };
