#define key_width 16
#define key_height 16
static char key_bits[] = {
  0xFC, 0x3F, 0xFC, 0x3F, 0x0C, 0x30, 0x0C, 0x60, 0x04, 0x30, 0x0C, 0x30, 
  0x0C, 0x30, 0xFC, 0x3F, 0xFC, 0x3F, 0x80, 0x01, 0xA0, 0x01, 0xF8, 0x01, 
  0xA0, 0x01, 0x80, 0x01, 0xF0, 0x01, 0xF8, 0x01, };
