#define light1_width 16
#define light1_height 16
static char light1_bits[] = {
  0xE0, 0x07, 0xE0, 0x07, 0x10, 0x18, 0x18, 0x08, 0x0C, 0x30, 0x04, 0x30, 
  0x0C, 0x30, 0x18, 0x18, 0x10, 0x08, 0x60, 0x06, 0xE0, 0x07, 0xE0, 0x07, 
  0xE0, 0x07, 0xE0, 0x07, 0x80, 0x01, 0x80, 0x01, };
