#define light2_width 16
#define light2_height 16
static char light2_bits[] = {
  0xE3, 0xC7, 0xE3, 0xC7, 0x10, 0x18, 0x18, 0x08, 0x0C, 0x30, 0x04, 0x30, 
  0x0C, 0x30, 0x18, 0x08, 0x10, 0x08, 0x60, 0x06, 0xE0, 0x06, 0xE3, 0xC7, 
  0xE1, 0x87, 0xE0, 0x07, 0x80, 0x01, 0x80, 0x01, };
