#define list_width 16
#define list_height 16
static char list_bits[] = {
  0xEF, 0x3F, 0xCF, 0x3F, 0x0F, 0x00, 0x05, 0x00, 0x00, 0x00, 0xC7, 0x3F, 
  0xEF, 0x3F, 0x0F, 0x00, 0x0F, 0x00, 0x00, 0x00, 0x80, 0x14, 0xEF, 0x3F, 
  0x4F, 0x25, 0x0F, 0x00, 0x00, 0x00, 0x00, 0x00, };
