#define lock_width 16
#define lock_height 16
static char lock_bits[] = {
  0xF0, 0x0F, 0xF8, 0x1F, 0x0C, 0x30, 0x0C, 0x30, 0x0C, 0x20, 0xFF, 0xFF, 
  0xFF, 0xFF, 0x03, 0xC0, 0x03, 0xC0, 0x83, 0xC1, 0x83, 0xC1, 0x83, 0xC1, 
  0x03, 0xC0, 0x03, 0xC0, 0xFF, 0xFF, 0xFF, 0xFF, };
