#define magnifier_width 16
#define magnifier_height 16
static char magnifier_bits[] = {
  0xF0, 0x01, 0xF8, 0x01, 0x0C, 0x06, 0x05, 0x06, 0x03, 0x0C, 0x03, 0x18, 
  0x03, 0x0C, 0x03, 0x18, 0x03, 0x08, 0x0C, 0x06, 0x84, 0x0E, 0xF8, 0x09, 
  0xA0, 0x30, 0x00, 0x30, 0x00, 0xC0, 0x00, 0xC0, };
