#define mail_width 16
#define mail_height 16
static char mail_bits[] = {
  0x00, 0x00, 0x00, 0x01, 0xFF, 0xFF, 0xDF, 0xFD, 0x03, 0xC0, 0x1B, 0xC8, 
  0x13, 0xD8, 0x63, 0xC6, 0x63, 0xC6, 0x83, 0xC1, 0x83, 0xC1, 0x03, 0xC0, 
  0xBF, 0xFB, 0xFF, 0xFF, 0x00, 0x08, 0x00, 0x00, };
