#define man_width 16
#define man_height 16
static char man_bits[] = {
  0x80, 0x01, 0x80, 0x01, 0x60, 0x06, 0xC0, 0x03, 0x80, 0x01, 0xF0, 0x0F, 
  0xF0, 0x1F, 0x8C, 0x21, 0x8C, 0x31, 0x6C, 0x26, 0x64, 0x36, 0x60, 0x06, 
  0x60, 0x06, 0x60, 0x06, 0x60, 0x06, 0x60, 0x06, };
