#define memory_width 16
#define memory_height 16
static char memory_bits[] = {
  0x64, 0x26, 0x4C, 0x22, 0x00, 0x00, 0x20, 0x08, 0xFC, 0x3F, 0xFC, 0x3F, 
  0xFC, 0x3F, 0xFC, 0x3F, 0xFC, 0x3F, 0xFC, 0x3F, 0xFC, 0x3F, 0xFC, 0x3F, 
  0x20, 0x01, 0x00, 0x00, 0x44, 0x26, 0x4C, 0x32, };
