#define mouse_width 16
#define mouse_height 16
static char mouse_bits[] = {
  0x7C, 0x3E, 0x7C, 0x3E, 0x7C, 0x3E, 0x7C, 0x3E, 0x7C, 0x3E, 0x04, 0x30, 
  0x0C, 0x30, 0xFC, 0x3F, 0xFC, 0x3F, 0xFC, 0x3F, 0xFC, 0x3F, 0xFC, 0x3F, 
  0xFC, 0x3F, 0xFC, 0x3F, 0xF8, 0x0F, 0xF0, 0x1F, };
