#define movie_width 16
#define movie_height 16
static char movie_bits[] = {
  0xFF, 0xFF, 0xFF, 0xFF, 0x93, 0xC9, 0xBB, 0xDD, 0xFF, 0xFF, 0x03, 0xC6, 
  0x03, 0xC6, 0x03, 0xC2, 0x03, 0xC6, 0x03, 0xC6, 0x03, 0xC6, 0xFF, 0xFF, 
  0xBB, 0xDD, 0x93, 0xC9, 0xFF, 0xFF, 0xFF, 0xFF, };
