#define note2_width 16
#define note2_height 16
static char note2_bits[] = {
  0x00, 0xF0, 0x00, 0xE0, 0x00, 0xCE, 0x80, 0xCD, 0xE0, 0xC1, 0xE0, 0xC0, 
  0x40, 0xC0, 0x60, 0xC0, 0x60, 0xC0, 0x60, 0xC0, 0x60, 0xD0, 0x60, 0xF8, 
  0x74, 0xF8, 0x7C, 0xFC, 0x7C, 0x10, 0x7C, 0x00, };
