#define notepad_width 16
#define notepad_height 16
static char notepad_bits[] = {
  0x6C, 0x26, 0x6C, 0x36, 0x93, 0xC9, 0x13, 0xC9, 0x03, 0xC0, 0x03, 0xC0, 
  0x03, 0xC0, 0x93, 0xC9, 0x93, 0xD9, 0x03, 0xC0, 0x03, 0xC0, 0x9B, 0xC9, 
  0x03, 0xC0, 0x03, 0xC0, 0xFF, 0xFF, 0xFF, 0xFF, };
