#define note1_width 16
#define note1_height 16
static char note1_bits[] = {
  0x00, 0x00, 0x00, 0x00, 0xF0, 0xFF, 0x78, 0xFB, 0x10, 0xC0, 0x30, 0xC0, 
  0x38, 0xC0, 0x10, 0xC0, 0x18, 0xC0, 0x10, 0xC0, 0x18, 0xC0, 0x30, 0xC0, 
  0x1E, 0xE8, 0x3F, 0xF8, 0x1F, 0xFC, 0x1F, 0xF8, };
