#define off_width 16
#define off_height 16
static char off_bits[] = {
  0x80, 0x01, 0x80, 0x01, 0x90, 0x19, 0x98, 0x09, 0x8C, 0x31, 0x83, 0xC1, 
  0x83, 0xC1, 0x83, 0xC1, 0x83, 0xC1, 0x83, 0xC1, 0x83, 0xC1, 0x0C, 0x30, 
  0x18, 0x38, 0x10, 0x0C, 0xE0, 0x03, 0xE0, 0x07, };
