#define omega_width 16
#define omega_height 16
static char omega_bits[] = {
  0x00, 0x00, 0x00, 0x00, 0xE0, 0x07, 0xE0, 0x07, 0x30, 0x1C, 0x0C, 0x20, 
  0x0C, 0x30, 0x0C, 0x30, 0x0E, 0x30, 0x04, 0x20, 0x0C, 0x38, 0x18, 0x08, 
  0x34, 0x3E, 0x6C, 0x36, 0x7C, 0x3E, 0x7E, 0x3E, };
