#define on_width 16
#define on_height 16
static char on_bits[] = {
  0xE0, 0x07, 0xE0, 0x07, 0x10, 0x18, 0x18, 0x08, 0x0C, 0x70, 0x03, 0xC0, 
  0x03, 0xC0, 0x03, 0xC0, 0x03, 0xC0, 0x03, 0xC0, 0x03, 0xE0, 0x0C, 0x30, 
  0x18, 0x08, 0x18, 0x18, 0xE0, 0x07, 0xE0, 0x07, };
