#define paint_width 16
#define paint_height 16
static char paint_bits[] = {
  0x10, 0x00, 0x18, 0x00, 0xEC, 0x01, 0xE4, 0x09, 0x6C, 0x3E, 0x7C, 0xFC, 
  0x7C, 0xF8, 0x6C, 0xF0, 0x6C, 0xE0, 0x03, 0xD8, 0x03, 0xCC, 0x04, 0xC6, 
  0x18, 0xC1, 0x90, 0xC1, 0x60, 0x00, 0x60, 0x00, };
