#define pc_width 16
#define pc_height 16
static char pc_bits[] = {
  0x1F, 0x00, 0x1F, 0x00, 0x13, 0x00, 0x13, 0x28, 0x93, 0xFF, 0x9B, 0xC1, 
  0x93, 0xC1, 0x93, 0xC1, 0x9B, 0xC1, 0x93, 0xC1, 0x93, 0xC1, 0x99, 0xFF, 
  0x13, 0x5C, 0x13, 0x08, 0x9F, 0xFF, 0x9F, 0xFF, };
