#define pencil_width 16
#define pencil_height 16
static char pencil_bits[] = {
  0x00, 0x3C, 0x00, 0x78, 0x00, 0xC6, 0x00, 0xC6, 0x80, 0xC9, 0xC0, 0x78, 
  0x60, 0x30, 0x10, 0x08, 0x10, 0x08, 0x0C, 0x06, 0x06, 0x03, 0x83, 0x01, 
  0x43, 0x00, 0x63, 0x00, 0x3F, 0x00, 0x1F, 0x00, };
