#define phone1_width 16
#define phone1_height 16
static char phone1_bits[] = {
  0xE0, 0x1F, 0xE0, 0x0F, 0x10, 0x08, 0x18, 0x1C, 0x90, 0x0F, 0xB0, 0x03, 
  0x98, 0x01, 0x90, 0x01, 0x90, 0x01, 0x98, 0x01, 0x90, 0x01, 0xB0, 0x0F, 
  0x10, 0x1D, 0x18, 0x08, 0xE0, 0x0F, 0xC0, 0x1F, };
