#define phone2_width 16
#define phone2_height 16
static char phone2_bits[] = {
  0xFC, 0x3F, 0xFC, 0x3F, 0x03, 0xC0, 0x93, 0xC2, 0xF3, 0xCF, 0x3B, 0xDC, 
  0x33, 0xCC, 0x1F, 0xF8, 0x1F, 0xF8, 0x80, 0x01, 0x00, 0x00, 0x03, 0xC0, 
  0xDF, 0xEB, 0xFF, 0xFF, 0x00, 0x00, 0x00, 0x00, };
