#define pin_width 16
#define pin_height 16
static char pin_bits[] = {
  0x80, 0x3F, 0x80, 0x7F, 0x80, 0xF1, 0x80, 0xE1, 0x80, 0xC1, 0xFC, 0xC0, 
  0x7C, 0xC0, 0x03, 0xF8, 0x03, 0xF8, 0x04, 0x06, 0x0C, 0x06, 0x30, 0x06, 
  0x6C, 0x06, 0x64, 0x06, 0x83, 0x01, 0x83, 0x01, };
