#define player_repeat2_width 16
#define player_repeat2_height 16
static char player_repeat2_bits[] = {
  0x00, 0x00, 0x00, 0x00, 0xFC, 0x3F, 0xDC, 0x37, 0x0C, 0x30, 0x04, 0x30, 
  0x0C, 0x30, 0x6C, 0x30, 0x6C, 0x30, 0x8C, 0x31, 0xCC, 0x35, 0xFC, 0x3F, 
  0xA8, 0x15, 0x80, 0x01, 0x60, 0x00, 0x60, 0x00, };
