#define player_repeat1_width 16
#define player_repeat1_height 16
static char player_repeat1_bits[] = {
  0xE0, 0x07, 0xE0, 0x07, 0x10, 0x18, 0x18, 0x08, 0x0C, 0x30, 0x0C, 0x30, 
  0x0C, 0x30, 0x6C, 0x30, 0x64, 0x30, 0xF8, 0x09, 0xF0, 0x0B, 0xE0, 0x07, 
  0xE0, 0x01, 0xE0, 0x01, 0xE0, 0x00, 0x60, 0x00, };
