#define player_play1_width 16
#define player_play1_height 16
static char player_play1_bits[] = {
  0x00, 0x00, 0x00, 0x00, 0x1C, 0x00, 0x7C, 0x00, 0xFC, 0x01, 0xFC, 0x0D, 
  0xFE, 0x0F, 0xFC, 0x3F, 0xFC, 0x3F, 0xFC, 0x0F, 0xFC, 0x0B, 0xFC, 0x01, 
  0x3E, 0x00, 0x1C, 0x00, 0x00, 0x00, 0x00, 0x00, };
