#define player_fwd2_width 16
#define player_fwd2_height 16
static char player_fwd2_bits[] = {
  0x00, 0x00, 0x00, 0x00, 0x8C, 0x01, 0x9C, 0x01, 0x30, 0x06, 0x60, 0x0A, 
  0x60, 0x1C, 0x80, 0x21, 0x80, 0x31, 0x60, 0x18, 0x60, 0x0A, 0x18, 0x06, 
  0x8C, 0x02, 0x84, 0x01, 0x00, 0x00, 0x00, 0x00, };
