#define player_next2_width 16
#define player_next2_height 16
static char player_next2_bits[] = {
  0x00, 0x00, 0x00, 0x00, 0x10, 0x08, 0x30, 0x18, 0x60, 0x08, 0x80, 0x1D, 
  0x80, 0x09, 0x00, 0x1E, 0x00, 0x1E, 0x80, 0x09, 0x80, 0x09, 0x60, 0x18, 
  0x50, 0x08, 0x10, 0x1C, 0x00, 0x00, 0x00, 0x00, };
