#define player_fwd1_width 16
#define player_fwd1_height 16
static char player_fwd1_bits[] = {
  0x00, 0x00, 0x00, 0x00, 0x8C, 0x01, 0x8C, 0x01, 0x9C, 0x07, 0xFC, 0x0F, 
  0xFC, 0x0F, 0xFC, 0x1F, 0xFC, 0x0F, 0xFC, 0x1F, 0xFC, 0x0F, 0x9C, 0x07, 
  0x8E, 0x01, 0x84, 0x01, 0x00, 0x00, 0x00, 0x00, };
