#define player_prev2_width 16
#define player_prev2_height 16
static char player_prev2_bits[] = {
  0x00, 0x00, 0x00, 0x00, 0x10, 0x08, 0x18, 0x0C, 0x30, 0x06, 0x90, 0x01, 
  0x98, 0x01, 0x70, 0x00, 0x78, 0x00, 0x90, 0x01, 0x98, 0x01, 0x30, 0x06, 
  0x10, 0x0A, 0x18, 0x08, 0x00, 0x00, 0x00, 0x00, };
