#define player_bwd2_width 16
#define player_bwd2_height 16
static char player_bwd2_bits[] = {
  0x00, 0x00, 0x00, 0x00, 0x80, 0x31, 0xC0, 0x29, 0x60, 0x1C, 0x30, 0x06, 
  0x10, 0x06, 0x8C, 0x01, 0x8C, 0x01, 0x18, 0x06, 0x30, 0x0E, 0x60, 0x18, 
  0xC0, 0x21, 0x80, 0x31, 0x00, 0x00, 0x00, 0x00, };
