#define player_next1_width 16
#define player_next1_height 16
static char player_next1_bits[] = {
  0x00, 0x00, 0x00, 0x00, 0x0C, 0x08, 0x2C, 0x18, 0x7C, 0x08, 0xFC, 0x0F, 
  0xFC, 0x0F, 0xFC, 0x1F, 0xFC, 0x0F, 0xFC, 0x1F, 0xFC, 0x0B, 0x7C, 0x18, 
  0x2C, 0x08, 0x0C, 0x08, 0x00, 0x00, 0x00, 0x00, };
