#define player_shuffle1_width 16
#define player_shuffle1_height 16
static char player_shuffle1_bits[] = {
  0x00, 0x00, 0x00, 0x00, 0x00, 0x00, 0x02, 0x48, 0x0F, 0xFE, 0x99, 0x63, 
  0x90, 0x01, 0x60, 0x08, 0x60, 0x0C, 0x90, 0x39, 0x18, 0x7D, 0x07, 0xFE, 
  0x05, 0x7C, 0x00, 0x38, 0x00, 0x1C, 0x00, 0x08, };
