#define player_shuffle2_width 16
#define player_shuffle2_height 16
static char player_shuffle2_bits[] = {
  0x00, 0x00, 0x00, 0x00, 0x00, 0x00, 0x02, 0x48, 0x0F, 0xFE, 0x99, 0x63, 
  0x90, 0x01, 0x60, 0x08, 0x60, 0x18, 0x98, 0x31, 0x10, 0x31, 0x0F, 0xFE, 
  0x05, 0x78, 0x00, 0x30, 0x00, 0x08, 0x00, 0x18, };
