#define player_stop2_width 16
#define player_stop2_height 16
static char player_stop2_bits[] = {
  0x00, 0x00, 0x10, 0x00, 0xFE, 0x3F, 0xDC, 0x3F, 0x0C, 0x30, 0x0C, 0x30, 
  0x0C, 0x30, 0x0C, 0x70, 0x0E, 0x30, 0x04, 0x20, 0x0C, 0x70, 0x0C, 0x30, 
  0xFC, 0x3E, 0xFC, 0x3F, 0x08, 0x0A, 0x00, 0x00, };
