#define player_prev1_width 16
#define player_prev1_height 16
static char player_prev1_bits[] = {
  0x00, 0x00, 0x00, 0x00, 0x10, 0x30, 0x18, 0x38, 0x10, 0x3E, 0xF0, 0x3F, 
  0xF8, 0x3F, 0xF0, 0x3F, 0xF8, 0x3F, 0xF0, 0x3F, 0x78, 0x3F, 0x10, 0x3E, 
  0x10, 0x34, 0x18, 0x20, 0x00, 0x00, 0x00, 0x00, };
