#define player_pause1_width 16
#define player_pause1_height 16
static char player_pause1_bits[] = {
  0x00, 0x00, 0x00, 0x00, 0x1C, 0x38, 0x1C, 0x38, 0x1C, 0x38, 0x1C, 0x38, 
  0x1C, 0x38, 0x1C, 0x38, 0x1C, 0x38, 0x1C, 0x38, 0x1C, 0x38, 0x1C, 0x38, 
  0x1C, 0x38, 0x1C, 0x38, 0x00, 0x00, 0x00, 0x00, };
