#define player_pause2_width 16
#define player_pause2_height 16
static char player_pause2_bits[] = {
  0x00, 0x00, 0x00, 0x00, 0x10, 0x08, 0x18, 0x18, 0x10, 0x08, 0x10, 0x08, 
  0x18, 0x08, 0x10, 0x18, 0x18, 0x18, 0x10, 0x08, 0x10, 0x08, 0x18, 0x18, 
  0x10, 0x08, 0x18, 0x08, 0x00, 0x00, 0x00, 0x00, };
