#define player_bwd1_width 16
#define player_bwd1_height 16
static char player_bwd1_bits[] = {
  0x00, 0x00, 0x00, 0x00, 0x80, 0x31, 0x80, 0x31, 0xE0, 0x39, 0xE0, 0x3F, 
  0xF8, 0x3F, 0xF0, 0x3F, 0xF8, 0x3F, 0xF0, 0x3F, 0xF0, 0x3F, 0xE0, 0x39, 
  0xC0, 0x31, 0x80, 0x31, 0x00, 0x00, 0x00, 0x00, };
