#define plus_width 16
#define plus_height 16
static char plus_bits[] = {
  0xE0, 0x07, 0xE0, 0x07, 0x60, 0x06, 0x60, 0x06, 0x60, 0x06, 0x7F, 0xFE, 
  0x7F, 0xFE, 0x03, 0xC0, 0x03, 0xC0, 0x7F, 0xFE, 0x7F, 0xFE, 0x60, 0x06, 
  0x60, 0x06, 0x60, 0x06, 0xE0, 0x07, 0xE0, 0x07, };
