#define puzzle_width 16
#define puzzle_height 16
static char puzzle_bits[] = {
  0x00, 0x3E, 0x00, 0x3E, 0x00, 0x36, 0x90, 0x66, 0xF8, 0xF7, 0x10, 0xC0, 
  0x30, 0xC0, 0x1F, 0xC0, 0x1F, 0xC0, 0x03, 0xC0, 0x0B, 0xC4, 0x9F, 0xCF, 
  0x9A, 0xCD, 0x90, 0xD9, 0xF0, 0xF9, 0xF8, 0xF9, };
