#define question_width 16
#define question_height 16
static char question_bits[] = {
  0x00, 0x00, 0x00, 0x00, 0xE0, 0x07, 0xD0, 0x07, 0x30, 0x1C, 0x18, 0x08, 
  0x30, 0x0C, 0x00, 0x06, 0x00, 0x06, 0x80, 0x01, 0x80, 0x01, 0x80, 0x01, 
  0x00, 0x00, 0x00, 0x00, 0x80, 0x01, 0x80, 0x01, };
