#define quote_width 16
#define quote_height 16
static char quote_bits[] = {
  0x00, 0x00, 0x00, 0x00, 0x00, 0x00, 0x00, 0x00, 0x00, 0x00, 0x10, 0x20, 
  0x10, 0x30, 0x0C, 0x08, 0x04, 0x0C, 0x0C, 0x18, 0x0C, 0x18, 0x1E, 0x38, 
  0x1C, 0x38, 0x1C, 0x3C, 0x00, 0x00, 0x00, 0x00, };
