#define radio_width 16
#define radio_height 16
static char radio_bits[] = {
  0x00, 0x30, 0x00, 0x30, 0xFC, 0x3F, 0xDC, 0x3F, 0x0C, 0x30, 0xC6, 0x33, 
  0xEC, 0x37, 0x6C, 0x36, 0x64, 0x26, 0xEC, 0x37, 0xCC, 0x33, 0x0C, 0x30, 
  0x0E, 0x30, 0x04, 0x20, 0xFE, 0x3F, 0xFC, 0x3F, };
