#define rss_width 16
#define rss_height 16
static char rss_bits[] = {
  0xFF, 0xFF, 0xFF, 0xFF, 0x03, 0xC0, 0x93, 0xC8, 0xF3, 0xCF, 0x03, 0xCC, 
  0x03, 0xCC, 0xF3, 0xC9, 0xF3, 0xD9, 0x83, 0xC9, 0x83, 0xC9, 0x93, 0xC9, 
  0x03, 0xC0, 0x03, 0xC0, 0xFF, 0xFF, 0xFF, 0xFF, };
