#define ruler_width 16
#define ruler_height 16
static char ruler_bits[] = {
  0x7C, 0x00, 0x7C, 0x01, 0xFF, 0xFF, 0xFF, 0xFD, 0x6F, 0xC0, 0xFF, 0xFF, 
  0xFF, 0xFF, 0x6C, 0x00, 0x64, 0x00, 0x6C, 0x00, 0x6C, 0x00, 0x66, 0x00, 
  0x6C, 0x00, 0x6C, 0x00, 0x7C, 0x00, 0x7C, 0x00, };
