#define screen_width 16
#define screen_height 16
static char screen_bits[] = {
  0xFF, 0xFF, 0xFF, 0xFF, 0x03, 0xC0, 0x03, 0xC0, 0x03, 0xC0, 0x03, 0xC0, 
  0x03, 0xC0, 0x03, 0xC0, 0x03, 0xC0, 0x03, 0xC0, 0x8B, 0xC4, 0xFF, 0xFF, 
  0xA2, 0x53, 0x80, 0x01, 0xF0, 0x0F, 0xF8, 0x1F, };
