#define screw_width 16
#define screw_height 16
static char screw_bits[] = {
  0x80, 0x1F, 0x80, 0x0F, 0x60, 0x18, 0x60, 0x4C, 0x60, 0xF6, 0x60, 0xC8, 
  0x60, 0xCC, 0x90, 0xC1, 0x90, 0xC1, 0x0C, 0x3E, 0x06, 0x3E, 0x83, 0x01, 
  0x43, 0x00, 0x63, 0x00, 0x3F, 0x00, 0x1F, 0x00, };
