#define scroll_width 16
#define scroll_height 16
static char scroll_bits[] = {
  0xF0, 0x3F, 0xF8, 0x7F, 0x0C, 0xC8, 0x05, 0x8C, 0x03, 0x06, 0x03, 0x06, 
  0x03, 0x06, 0x0C, 0x08, 0x04, 0x18, 0x18, 0x20, 0x10, 0x30, 0x38, 0x30, 
  0x04, 0x08, 0x0C, 0x18, 0xFF, 0x03, 0xFF, 0x07, };
