#define selection_width 16
#define selection_height 16
static char selection_bits[] = {
  0xB3, 0xD9, 0x9B, 0xC9, 0x00, 0x00, 0x01, 0x40, 0x03, 0xC0, 0x00, 0x00, 
  0x00, 0x00, 0x03, 0xC0, 0x03, 0xC0, 0x00, 0x00, 0x00, 0x00, 0x03, 0xC0, 
  0x01, 0x80, 0x00, 0x00, 0x93, 0xC9, 0x9B, 0xD9, };
