#define shelf_width 16
#define shelf_height 16
static char shelf_bits[] = {
  0xFC, 0x3F, 0xFC, 0x3F, 0x0C, 0x30, 0x8C, 0x32, 0xE4, 0x27, 0x0C, 0x30, 
  0x0C, 0x30, 0xFC, 0x3F, 0xFC, 0x3F, 0x0C, 0x30, 0x8C, 0x30, 0xE4, 0x27, 
  0x0C, 0x31, 0x04, 0x30, 0xFC, 0x3F, 0xFC, 0x3F, };
