#define shift_right_width 16
#define shift_right_height 16
static char shift_right_bits[] = {
  0x30, 0x00, 0x18, 0x00, 0x60, 0x00, 0xC0, 0x00, 0x80, 0x01, 0x00, 0x03, 
  0x00, 0x06, 0x00, 0x0C, 0x00, 0x18, 0x00, 0x06, 0x00, 0x03, 0x80, 0x01, 
  0xC0, 0x00, 0x60, 0x00, 0x30, 0x00, 0x18, 0x00, };
