#define shift_left_width 16
#define shift_left_height 16
static char shift_left_bits[] = {
  0x00, 0x0C, 0x00, 0x18, 0x00, 0x06, 0x80, 0x03, 0x80, 0x01, 0x40, 0x00, 
  0x60, 0x00, 0x30, 0x00, 0x10, 0x00, 0x60, 0x00, 0xE0, 0x00, 0x80, 0x01, 
  0x00, 0x03, 0x00, 0x06, 0x00, 0x0C, 0x00, 0x18, };
