#define shift_up_width 16
#define shift_up_height 16
static char shift_up_bits[] = {
  0x00, 0x00, 0x00, 0x00, 0x00, 0x00, 0x80, 0x00, 0x80, 0x01, 0x40, 0x03, 
  0x60, 0x06, 0x30, 0x0C, 0x10, 0x18, 0x0C, 0x30, 0x05, 0x60, 0x03, 0xC0, 
  0x01, 0x80, 0x00, 0x00, 0x00, 0x00, 0x00, 0x00, };
