#define tag_width 16
#define tag_height 16
static char tag_bits[] = {
  0x00, 0xFE, 0x00, 0xFE, 0x80, 0xC1, 0xC0, 0xC1, 0x60, 0xC0, 0x10, 0xC2, 
  0x10, 0xC6, 0x0C, 0x30, 0x0C, 0x30, 0x03, 0x08, 0x03, 0x0C, 0x0C, 0x06, 
  0x98, 0x01, 0x90, 0x01, 0x60, 0x00, 0x60, 0x00, };
