#define temp_width 16
#define temp_height 16
static char temp_bits[] = {
  0x00, 0xF0, 0x00, 0xF0, 0x60, 0xFC, 0x40, 0xFC, 0x00, 0x3E, 0x84, 0x1D, 
  0x8C, 0x19, 0x60, 0x06, 0x60, 0x06, 0x9C, 0x01, 0xDE, 0x01, 0x63, 0x00, 
  0x63, 0x00, 0x63, 0x00, 0x3E, 0x00, 0x1C, 0x00, };
