#define terminal_width 16
#define terminal_height 16
static char terminal_bits[] = {
  0x00, 0x00, 0x00, 0x01, 0xFF, 0xFF, 0xDF, 0xFD, 0x03, 0xC0, 0x1B, 0xC0, 
  0x13, 0xC0, 0x63, 0xC0, 0x63, 0xC0, 0x9B, 0xC7, 0x93, 0xC3, 0x03, 0xC0, 
  0x03, 0xC0, 0x03, 0xC0, 0xFF, 0xFF, 0xFF, 0xFF, };
