#define thumb_up_width 16
#define thumb_up_height 16
static char thumb_up_bits[] = {
  0xE0, 0x01, 0xE0, 0x01, 0x90, 0x01, 0x98, 0x49, 0x8C, 0xFF, 0x02, 0xE2, 
  0x03, 0xC0, 0x80, 0xFF, 0x80, 0xFF, 0x00, 0xC0, 0x00, 0xD4, 0x80, 0xFF, 
  0x00, 0xC5, 0x03, 0xC0, 0xFC, 0xFF, 0xFC, 0xFF, };
