#define thumb_down_width 16
#define thumb_down_height 16
static char thumb_down_bits[] = {
  0xFF, 0x3F, 0xFF, 0x3F, 0x03, 0xC0, 0xA7, 0x80, 0xFF, 0x01, 0x13, 0x00, 
  0x03, 0x00, 0xFF, 0x01, 0xFF, 0x01, 0x03, 0xC0, 0x8B, 0x80, 0xFF, 0x31, 
  0xA5, 0x19, 0x80, 0x09, 0x80, 0x03, 0x80, 0x07, };
