#define tile1_width 16
#define tile1_height 16
static char tile1_bits[] = {
  0xFC, 0xFF, 0xFC, 0xFF, 0x0C, 0xC0, 0x0C, 0xC0, 0x04, 0xC0, 0x0C, 0xC0, 
  0x0C, 0xC0, 0xFF, 0xC1, 0xFF, 0xC1, 0x83, 0xC1, 0x83, 0xC1, 0x83, 0xC1, 
  0x83, 0xFB, 0x83, 0xFF, 0xFF, 0x05, 0xFF, 0x01, };
