#define tile3_width 16
#define tile3_height 16
static char tile3_bits[] = {
  0xFF, 0xFF, 0xFF, 0xFF, 0x03, 0xC0, 0x03, 0xC0, 0x03, 0xC0, 0x03, 0xC0, 
  0x03, 0xC0, 0xFF, 0xC1, 0xFF, 0xC1, 0x83, 0xC1, 0x83, 0xC1, 0x83, 0xC1, 
  0x83, 0xC1, 0x83, 0xC1, 0xFF, 0xFF, 0xFF, 0xFF, };
