#define tile2_width 16
#define tile2_height 16
static char tile2_bits[] = {
  0xE0, 0xFF, 0xE0, 0xFF, 0x60, 0xC0, 0x60, 0xC0, 0x60, 0xC0, 0xFF, 0xC3, 
  0xFF, 0xC7, 0x03, 0xC6, 0x03, 0xC6, 0x03, 0xFE, 0x03, 0xFE, 0x03, 0x06, 
  0x03, 0x06, 0x03, 0x06, 0xFF, 0x07, 0xFF, 0x07, };
