#define trash_width 16
#define trash_height 16
static char trash_bits[] = {
  0xE0, 0x07, 0xE0, 0x07, 0x7F, 0xFE, 0x5F, 0xFE, 0x03, 0xC0, 0xFF, 0xFF, 
  0xFF, 0xFF, 0x0C, 0x30, 0x04, 0x20, 0x6C, 0x36, 0x6C, 0x36, 0x64, 0x36, 
  0x4C, 0x20, 0x0C, 0x30, 0xFC, 0x3F, 0xFC, 0x3F, };
