#define tv_width 16
#define tv_height 16
static char tv_bits[] = {
  0x10, 0x08, 0x10, 0x08, 0x60, 0x06, 0xE2, 0x26, 0xFF, 0xFF, 0x03, 0xC0, 
  0x03, 0xC0, 0xF3, 0xCF, 0xF3, 0xCF, 0xFB, 0xDF, 0xF3, 0xCF, 0xF3, 0xCF, 
  0x41, 0xC0, 0x03, 0xC0, 0xFF, 0xFF, 0xFF, 0xFF, };
