#define usb_width 16
#define usb_height 16
static char usb_bits[] = {
  0x80, 0x01, 0x80, 0x01, 0x80, 0x09, 0x80, 0x19, 0x90, 0x09, 0xB0, 0x1D, 
  0xB8, 0x09, 0x90, 0x19, 0x90, 0x09, 0x98, 0x07, 0x90, 0x03, 0xE0, 0x01, 
  0xC0, 0x01, 0x80, 0x01, 0x80, 0x01, 0x80, 0x01, };
