#define volume_plus_width 16
#define volume_plus_height 16
static char volume_plus_bits[] = {
  0x80, 0x01, 0x80, 0x01, 0xE0, 0x01, 0xE0, 0x01, 0xB0, 0x01, 0x8F, 0x21, 
  0x8F, 0x31, 0x83, 0xF9, 0x83, 0xF9, 0x8F, 0x31, 0x87, 0x31, 0xB8, 0x01, 
  0xD0, 0x01, 0xE0, 0x01, 0x80, 0x01, 0x80, 0x01, };
