#define volume_on_width 16
#define volume_on_height 16
static char volume_on_bits[] = {
  0x80, 0x01, 0x80, 0x01, 0xE0, 0x21, 0xE0, 0x61, 0xB0, 0xC1, 0x87, 0xD9, 
  0x8F, 0xCD, 0x83, 0xD9, 0x83, 0xD9, 0x8F, 0xC9, 0x87, 0xC9, 0x98, 0xC1, 
  0xE0, 0xA1, 0xE0, 0x31, 0x80, 0x01, 0x80, 0x01, };
