#define volume_off_width 16
#define volume_off_height 16
static char volume_off_bits[] = {
  0x80, 0x01, 0x80, 0x01, 0xE0, 0x01, 0xE0, 0x01, 0xB0, 0x01, 0x8F, 0x01, 
  0x8F, 0x01, 0x83, 0x01, 0x83, 0x01, 0x8F, 0x01, 0x87, 0x01, 0xB8, 0x01, 
  0xB0, 0x01, 0xE0, 0x01, 0x80, 0x01, 0x80, 0x01, };
