#define wait_width 16
#define wait_height 16
static char wait_bits[] = {
  0xFC, 0x3F, 0xFC, 0x3F, 0x0C, 0x30, 0x08, 0x30, 0x30, 0x08, 0x40, 0x06, 
  0x60, 0x06, 0x80, 0x01, 0x80, 0x01, 0x60, 0x06, 0x60, 0x0B, 0x98, 0x09, 
  0xE4, 0x1B, 0xEC, 0x37, 0xFC, 0x3F, 0xFC, 0x3F, };
