#define wand_width 16
#define wand_height 16
static char wand_bits[] = {
  0x60, 0x30, 0x60, 0x60, 0xF0, 0xDD, 0xF0, 0x9D, 0x60, 0x3E, 0x90, 0x1F, 
  0x90, 0x0F, 0xE0, 0x07, 0xE0, 0x07, 0xF8, 0x01, 0xF8, 0x01, 0x7C, 0x00, 
  0x3F, 0x00, 0x1F, 0x00, 0x0C, 0x00, 0x0C, 0x00, };
