#define water_width 16
#define water_height 16
static char water_bits[] = {
  0x80, 0x01, 0x80, 0x01, 0x80, 0x01, 0xC0, 0x03, 0x60, 0x06, 0x30, 0x08, 
  0x10, 0x1C, 0x0C, 0x20, 0x06, 0x30, 0x0C, 0x20, 0x0C, 0x70, 0x0C, 0x30, 
  0x14, 0x08, 0x18, 0x18, 0xE0, 0x07, 0xE0, 0x07, };
