#define wifi_width 16
#define wifi_height 16
static char wifi_bits[] = {
  0x00, 0x00, 0x00, 0x00, 0x00, 0x18, 0x00, 0x08, 0x80, 0x31, 0x90, 0x33, 
  0x10, 0x36, 0x63, 0x76, 0x63, 0x36, 0x38, 0x26, 0x10, 0x73, 0x80, 0x31, 
  0x00, 0x09, 0x00, 0x18, 0x00, 0x00, 0x00, 0x00, };
