#define world_width 16
#define world_height 16
static char world_bits[] = {
  0xE0, 0x07, 0xE0, 0x07, 0x10, 0x08, 0x18, 0x16, 0x8C, 0x37, 0x12, 0xCF, 
  0x3B, 0xCE, 0x13, 0xDE, 0x1B, 0xCE, 0x03, 0xC0, 0x43, 0xC0, 0xE4, 0x31, 
  0x58, 0x18, 0x10, 0x08, 0xE0, 0x03, 0xE0, 0x07, };
