#define ac_width 16
#define ac_height 16
static char ac_bits[] = {
  0xFF, 0xFF, 0xFF, 0xFF, 0xC0, 0xFF, 0xC0, 0xFF, 0x00, 0xFF, 0x00, 0xFF, 
  0x3C, 0xFF, 0x3C, 0xFF, 0xFF, 0x3C, 0xFF, 0x3C, 0xFF, 0x00, 0xFF, 0x00, 
  0xFF, 0x03, 0xFF, 0x03, 0xFF, 0xFF, 0xFF, 0xFF, };
