#define ac_01_width 16
#define ac_01_height 16
static char ac_01_bits[] = {
  0x00, 0x0F, 0x00, 0x0F, 0xC0, 0x0C, 0xC0, 0x0C, 0x30, 0xFC, 0x30, 0xFC, 
  0x3F, 0x0C, 0x3F, 0x0C, 0x3F, 0x0C, 0x3F, 0x0C, 0x30, 0xFC, 0x30, 0xFC, 
  0xC0, 0x0C, 0xC0, 0x0C, 0x00, 0x0F, 0x00, 0x0F, };
