#define arch_width 16
#define arch_height 16
static char arch_bits[] = {
  0xC0, 0x00, 0xC0, 0x00, 0xC0, 0x00, 0xC0, 0x00, 0xF0, 0x03, 0xF0, 0x03, 
  0xF0, 0x03, 0xF0, 0x03, 0x3C, 0x0F, 0x3C, 0x0F, 0x0C, 0x0C, 0x0C, 0x0C, 
  0x3F, 0x3F, 0x3F, 0x3F, 0x03, 0x30, 0x03, 0x30, };
