#define bat_full_02_width 16
#define bat_full_02_height 16
static char bat_full_02_bits[] = {
  0x00, 0x00, 0x00, 0x00, 0xFF, 0x3F, 0xFF, 0x3F, 0x03, 0x30, 0x03, 0x30, 
  0xF3, 0xF3, 0xF3, 0xF3, 0xF3, 0xF3, 0xF3, 0xF3, 0x03, 0x30, 0x03, 0x30, 
  0xFF, 0x3F, 0xFF, 0x3F, 0x00, 0x00, 0x00, 0x00, };
