#define bat_low_02_width 16
#define bat_low_02_height 16
static char bat_low_02_bits[] = {
  0x00, 0x00, 0x00, 0x00, 0xFF, 0x3F, 0xFF, 0x3F, 0x03, 0x30, 0x03, 0x30, 
  0x33, 0xF0, 0x33, 0xF0, 0x33, 0xF0, 0x33, 0xF0, 0x03, 0x30, 0x03, 0x30, 
  0xFF, 0x3F, 0xFF, 0x3F, 0x00, 0x00, 0x00, 0x00, };
