#define bluetooth_width 16
#define bluetooth_height 16
static char bluetooth_bits[] = {
  0xC0, 0x03, 0xC0, 0x03, 0xCC, 0x0C, 0xCC, 0x0C, 0xF0, 0x3C, 0xF0, 0x3C, 
  0xC0, 0x0F, 0xC0, 0x0F, 0xC0, 0x0F, 0xC0, 0x0F, 0xF0, 0x3C, 0xF0, 0x3C, 
  0xCC, 0x0C, 0xCC, 0x0C, 0xC0, 0x03, 0xC0, 0x03, };
