#define bug_02_width 16
#define bug_02_height 16
static char bug_02_bits[] = {
  0x0F, 0xF0, 0x0F, 0xF0, 0x30, 0x0C, 0x30, 0x0C, 0x30, 0x0C, 0x30, 0x0C, 
  0xCF, 0xF3, 0xCF, 0xF3, 0xF0, 0x0F, 0xF0, 0x0F, 0xFC, 0x3F, 0xFC, 0x3F, 
  0xC3, 0xC3, 0xC3, 0xC3, 0x0C, 0x30, 0x0C, 0x30, };
