#define clock_width 16
#define clock_height 16
static char clock_bits[] = {
  0xF0, 0x0F, 0xF0, 0x0F, 0xFC, 0x33, 0xFC, 0x33, 0xFF, 0xFC, 0xFF, 0xFC, 
  0x3F, 0xFF, 0x3F, 0xFF, 0x3F, 0xC0, 0x3F, 0xC0, 0xFF, 0xFF, 0xFF, 0xFF, 
  0xFC, 0x3F, 0xFC, 0x3F, 0xF0, 0x0F, 0xF0, 0x0F, };
