#define dish_width 16
#define dish_height 16
static char dish_bits[] = {
  0x03, 0xC0, 0x03, 0xC0, 0xCF, 0x3F, 0xCF, 0x3F, 0x3C, 0x30, 0x3C, 0x30, 
  0xFC, 0x30, 0xFC, 0x30, 0xF0, 0x33, 0xF0, 0x33, 0xFC, 0x0F, 0xFC, 0x0F, 
  0x3F, 0x3F, 0x3F, 0x3F, 0x0F, 0xF0, 0x0F, 0xF0, };
