#define diskette_width 16
#define diskette_height 16
static char diskette_bits[] = {
  0xFF, 0xFF, 0xFF, 0xFF, 0x03, 0xC0, 0x03, 0xC0, 0x03, 0xC0, 0x03, 0xC0, 
  0x03, 0xC0, 0x03, 0xC0, 0xF3, 0xCF, 0xF3, 0xCF, 0x33, 0xCF, 0x33, 0xCF, 
  0x33, 0xCF, 0x33, 0xCF, 0xFC, 0xFF, 0xFC, 0xFF, };
