#define empty_width 16
#define empty_height 16
static char empty_bits[] = {
  0xF0, 0x0F, 0xF0, 0x0F, 0x0C, 0x30, 0x0C, 0x30, 0x03, 0xC0, 0x03, 0xC0, 
  0x03, 0xC0, 0x03, 0xC0, 0x03, 0xC0, 0x03, 0xC0, 0x03, 0xC0, 0x03, 0xC0, 
  0x0C, 0x30, 0x0C, 0x30, 0xF0, 0x0F, 0xF0, 0x0F, };
