#define eye_r_width 16
#define eye_r_height 16
static char eye_r_bits[] = {
  0x00, 0x00, 0x00, 0x00, 0x00, 0x00, 0x00, 0x00, 0xC0, 0xF3, 0xC0, 0xF3, 
  0x00, 0x30, 0x00, 0x30, 0x00, 0x30, 0x00, 0x30, 0x03, 0x0C, 0x03, 0x0C, 
  0xFF, 0xC3, 0xFF, 0xC3, 0x00, 0x30, 0x00, 0x30, };
