#define eye_l_width 16
#define eye_l_height 16
static char eye_l_bits[] = {
  0x00, 0x00, 0x00, 0x00, 0x00, 0x00, 0x00, 0x00, 0xCF, 0x03, 0xCF, 0x03, 
  0x0C, 0x00, 0x0C, 0x00, 0x0C, 0x00, 0x0C, 0x00, 0x30, 0xC0, 0x30, 0xC0, 
  0xC3, 0xFF, 0xC3, 0xFF, 0x0C, 0x00, 0x0C, 0x00, };
