#define fox_width 16
#define fox_height 16
static char fox_bits[] = {
  0x03, 0xC0, 0x03, 0xC0, 0x0F, 0xF0, 0x0F, 0xF0, 0xF3, 0xCF, 0xF3, 0xCF, 
  0xFF, 0xFF, 0xFF, 0xFF, 0xC3, 0xC3, 0xC3, 0xC3, 0xCF, 0xF3, 0xCF, 0xF3, 
  0xFC, 0x3F, 0xFC, 0x3F, 0xC0, 0x03, 0xC0, 0x03, };
