#define fs_01_width 16
#define fs_01_height 16
static char fs_01_bits[] = {
  0x3C, 0x30, 0x3C, 0x30, 0xC3, 0xC3, 0xC3, 0xC3, 0xF0, 0xCF, 0xF0, 0xCF, 
  0x3C, 0x3C, 0x3C, 0x3C, 0x3C, 0x3C, 0x3C, 0x3C, 0xF3, 0x0F, 0xF3, 0x0F, 
  0xC3, 0xC3, 0xC3, 0xC3, 0x0C, 0x3C, 0x0C, 0x3C, };
