#define fs_02_width 16
#define fs_02_height 16
static char fs_02_bits[] = {
  0x03, 0xFF, 0x03, 0xFF, 0xCF, 0x33, 0xCF, 0x33, 0xF3, 0x0F, 0xF3, 0x0F, 
  0x3F, 0x3C, 0x3F, 0x3C, 0x3C, 0xFC, 0x3C, 0xFC, 0xF0, 0xCF, 0xF0, 0xCF, 
  0xCC, 0xF3, 0xCC, 0xF3, 0xFF, 0xC0, 0xFF, 0xC0, };
