#define fwd_width 16
#define fwd_height 16
static char fwd_bits[] = {
  0x00, 0x00, 0x00, 0x00, 0x0C, 0x03, 0x0C, 0x03, 0x3C, 0x0F, 0x3C, 0x0F, 
  0xFC, 0x3F, 0xFC, 0x3F, 0xFC, 0x3F, 0xFC, 0x3F, 0x3C, 0x0F, 0x3C, 0x0F, 
  0x0C, 0x03, 0x0C, 0x03, 0x00, 0x00, 0x00, 0x00, };
