#define info_02_width 16
#define info_02_height 16
static char info_02_bits[] = {
  0xFF, 0xFF, 0xFF, 0xFF, 0x3F, 0xFC, 0x3F, 0xFC, 0xFF, 0xFF, 0xFF, 0xFF, 
  0x3F, 0xFC, 0x3F, 0xFC, 0x3F, 0xFC, 0x3F, 0xFC, 0x3F, 0xFC, 0x3F, 0xFC, 
  0x3F, 0xFC, 0x3F, 0xFC, 0xFF, 0xFF, 0xFF, 0xFF, };
