#define info_01_width 16
#define info_01_height 16
static char info_01_bits[] = {
  0xF0, 0x0F, 0xF0, 0x0F, 0x3C, 0x3C, 0x3C, 0x3C, 0xFF, 0xFF, 0xFF, 0xFF, 
  0x3F, 0xFC, 0x3F, 0xFC, 0x3F, 0xFC, 0x3F, 0xFC, 0x3F, 0xFC, 0x3F, 0xFC, 
  0x3C, 0x3C, 0x3C, 0x3C, 0xF0, 0x0F, 0xF0, 0x0F, };
