#define info_03_width 16
#define info_03_height 16
static char info_03_bits[] = {
  0xC0, 0x0F, 0xC0, 0x0F, 0xC0, 0x0F, 0xC0, 0x0F, 0x00, 0x00, 0x00, 0x00, 
  0xF0, 0x0F, 0xF0, 0x0F, 0xC0, 0x0F, 0xC0, 0x0F, 0xC0, 0x0F, 0xC0, 0x0F, 
  0xC0, 0x0F, 0xC0, 0x0F, 0xF0, 0x3F, 0xF0, 0x3F, };
