#define mail_width 16
#define mail_height 16
static char mail_bits[] = {
  0x00, 0x00, 0x00, 0x00, 0xFF, 0xFF, 0xFF, 0xFF, 0xFC, 0x3F, 0xFC, 0x3F, 
  0xF3, 0xCF, 0xF3, 0xCF, 0xCF, 0xF3, 0xCF, 0xF3, 0x3F, 0xFC, 0x3F, 0xFC, 
  0xFF, 0xFF, 0xFF, 0xFF, 0x00, 0x00, 0x00, 0x00, };
