#define mem_width 16
#define mem_height 16
static char mem_bits[] = {
  0xCC, 0xCC, 0xCC, 0xCC, 0x00, 0x00, 0x00, 0x00, 0xFC, 0xFF, 0xFC, 0xFF, 
  0xFC, 0xFF, 0xFC, 0xFF, 0xFC, 0xFF, 0xFC, 0xFF, 0xFC, 0xFF, 0xFC, 0xFF, 
  0x00, 0x00, 0x00, 0x00, 0xCC, 0xCC, 0xCC, 0xCC, };
