#define mouse_01_width 16
#define mouse_01_height 16
static char mouse_01_bits[] = {
  0xFC, 0xFC, 0xFC, 0xFC, 0xFC, 0xFC, 0xFC, 0xFC, 0xFC, 0xFC, 0xFC, 0xFC, 
  0x0C, 0xC0, 0x0C, 0xC0, 0xFC, 0xFF, 0xFC, 0xFF, 0xFC, 0xFF, 0xFC, 0xFF, 
  0xFC, 0xFF, 0xFC, 0xFF, 0xF0, 0x3F, 0xF0, 0x3F, };
