#define net_wired_width 16
#define net_wired_height 16
static char net_wired_bits[] = {
  0x00, 0x00, 0x00, 0x00, 0xF0, 0x03, 0xF0, 0x03, 0xF0, 0x03, 0xF0, 0x03, 
  0xFF, 0x3F, 0xFF, 0x3F, 0xFF, 0x3F, 0xFF, 0x3F, 0xFF, 0x3F, 0xFF, 0x3F, 
  0x33, 0x33, 0x33, 0x33, 0xFF, 0x3F, 0xFF, 0x3F, };
