#define net_down_01_width 16
#define net_down_01_height 16
static char net_down_01_bits[] = {
  0xFC, 0x03, 0xFC, 0x03, 0xF0, 0x0F, 0xF0, 0x0F, 0xF0, 0x0F, 0xF0, 0x0F, 
  0xF0, 0x0F, 0xF0, 0x0F, 0xFF, 0xFF, 0xFF, 0xFF, 0xFC, 0x3F, 0xFC, 0x3F, 
  0xF0, 0x0F, 0xF0, 0x0F, 0xC0, 0x03, 0xC0, 0x03, };
