#define net_up_02_width 16
#define net_up_02_height 16
static char net_up_02_bits[] = {
  0xC0, 0x03, 0xC0, 0x03, 0xF0, 0x0F, 0xF0, 0x0F, 0xFC, 0x3F, 0xFC, 0x3F, 
  0xFF, 0xFF, 0xFF, 0xFF, 0xF0, 0x0F, 0xF0, 0x0F, 0xF0, 0x0F, 0xF0, 0x0F, 
  0xF0, 0x0F, 0xF0, 0x0F, 0xFC, 0x03, 0xFC, 0x03, };
