#define next_width 16
#define next_height 16
static char next_bits[] = {
  0x00, 0x00, 0x00, 0x00, 0x0C, 0x30, 0x0C, 0x30, 0xFC, 0x30, 0xFC, 0x30, 
  0xFC, 0x3F, 0xFC, 0x3F, 0xFC, 0x3F, 0xFC, 0x3F, 0xFC, 0x30, 0xFC, 0x30, 
  0x0C, 0x30, 0x0C, 0x30, 0x00, 0x00, 0x00, 0x00, };
