#define pacman_width 16
#define pacman_height 16
static char pacman_bits[] = {
  0xF0, 0x0F, 0xF0, 0x0F, 0xFC, 0x3C, 0xFC, 0x3C, 0x3F, 0xFC, 0x3F, 0xFC, 
  0xFF, 0xFF, 0xFF, 0xFF, 0x3F, 0x00, 0x3F, 0x00, 0xFF, 0x03, 0xFF, 0x03, 
  0xFC, 0x3F, 0xFC, 0x3F, 0xF0, 0x0F, 0xF0, 0x0F, };
