#define phones_width 16
#define phones_height 16
static char phones_bits[] = {
  0xF0, 0x0F, 0xF0, 0x0F, 0x0C, 0x30, 0x0C, 0x30, 0x03, 0xC0, 0x03, 0xC0, 
  0x03, 0xC0, 0x03, 0xC0, 0x33, 0xCC, 0x33, 0xCC, 0x3F, 0xFC, 0x3F, 0xFC, 
  0x3F, 0xFC, 0x3F, 0xFC, 0x3C, 0x3C, 0x3C, 0x3C, };
