#define play_width 16
#define play_height 16
static char play_bits[] = {
  0x00, 0x00, 0x00, 0x00, 0x3C, 0x00, 0x3C, 0x00, 0xFC, 0x03, 0xFC, 0x03, 
  0xFC, 0x3F, 0xFC, 0x3F, 0xFC, 0x3F, 0xFC, 0x3F, 0xFC, 0x03, 0xFC, 0x03, 
  0x3C, 0x00, 0x3C, 0x00, 0x00, 0x00, 0x00, 0x00, };
