#define plug_width 16
#define plug_height 16
static char plug_bits[] = {
  0x0F, 0x00, 0x0F, 0x00, 0xFF, 0x00, 0xFF, 0x00, 0xFC, 0x03, 0xFC, 0x03, 
  0xFC, 0x0F, 0xFC, 0x0F, 0xF0, 0x0F, 0xF0, 0x0F, 0xC0, 0x33, 0xC0, 0x33, 
  0x00, 0xCC, 0x00, 0xCC, 0x00, 0xF0, 0x00, 0xF0, };
