#define prev_width 16
#define prev_height 16
static char prev_bits[] = {
  0x00, 0x00, 0x00, 0x00, 0x0C, 0x30, 0x0C, 0x30, 0x0C, 0x3F, 0x0C, 0x3F, 
  0xFC, 0x3F, 0xFC, 0x3F, 0xFC, 0x3F, 0xFC, 0x3F, 0x0C, 0x3F, 0x0C, 0x3F, 
  0x0C, 0x30, 0x0C, 0x30, 0x00, 0x00, 0x00, 0x00, };
