#define scorpio_width 16
#define scorpio_height 16
static char scorpio_bits[] = {
  0x0C, 0x30, 0x0C, 0x30, 0x03, 0xC0, 0x03, 0xC0, 0xCF, 0xF3, 0xCF, 0xF3, 
  0xF0, 0x0F, 0xF0, 0x0F, 0xCF, 0xF3, 0xCF, 0xF3, 0xCC, 0x33, 0xCC, 0x33, 
  0xC3, 0xC3, 0xC3, 0xC3, 0x00, 0x0F, 0x00, 0x0F, };
