#define spkr_01_width 16
#define spkr_01_height 16
static char spkr_01_bits[] = {
  0xC0, 0x00, 0xC0, 0x00, 0xF0, 0x30, 0xF0, 0x30, 0xFF, 0xC0, 0xFF, 0xC0, 
  0xFF, 0xCC, 0xFF, 0xCC, 0xFF, 0xCC, 0xFF, 0xCC, 0xFF, 0xC0, 0xFF, 0xC0, 
  0xF0, 0x30, 0xF0, 0x30, 0xC0, 0x00, 0xC0, 0x00, };
