#define spkr_03_width 16
#define spkr_03_height 16
static char spkr_03_bits[] = {
  0xF0, 0x30, 0xF0, 0x30, 0x0F, 0xC3, 0x0F, 0xC3, 0x0F, 0xC3, 0x0F, 0xC3, 
  0x3F, 0xC3, 0x3F, 0xC3, 0x3F, 0xC3, 0x3F, 0xC3, 0x0F, 0xC3, 0x0F, 0xC3, 
  0x0F, 0xC3, 0x0F, 0xC3, 0xF0, 0x30, 0xF0, 0x30, };
