#define stop_width 16
#define stop_height 16
static char stop_bits[] = {
  0x00, 0x00, 0x00, 0x00, 0xFC, 0x3F, 0xFC, 0x3F, 0xFC, 0x3F, 0xFC, 0x3F, 
  0xFC, 0x3F, 0xFC, 0x3F, 0xFC, 0x3F, 0xFC, 0x3F, 0xFC, 0x3F, 0xFC, 0x3F, 
  0xFC, 0x3F, 0xFC, 0x3F, 0x00, 0x00, 0x00, 0x00, };
