#define temp_width 16
#define temp_height 16
static char temp_bits[] = {
  0xC0, 0xF0, 0xC0, 0xF0, 0x00, 0xFC, 0x00, 0xFC, 0x0C, 0x3F, 0x0C, 0x3F, 
  0xC0, 0x0C, 0xC0, 0x0C, 0x3C, 0x03, 0x3C, 0x03, 0xC3, 0x00, 0xC3, 0x00, 
  0xC3, 0x00, 0xC3, 0x00, 0x3C, 0x00, 0x3C, 0x00, };
