#define test_width 16
#define test_height 16
static char test_bits[] = {
  0xFC, 0x00, 0xFC, 0x00, 0x0F, 0x03, 0x0F, 0x03, 0x03, 0x0C, 0x03, 0x0C, 
  0x03, 0x30, 0x03, 0x30, 0x0C, 0xC0, 0x0C, 0xC0, 0x30, 0xC0, 0x30, 0xC0, 
  0xC0, 0xF0, 0xC0, 0xF0, 0x00, 0x3F, 0x00, 0x3F, };
