#define usb_width 16
#define usb_height 16
static char usb_bits[] = {
  0x00, 0x3F, 0x00, 0x3F, 0xC0, 0xC0, 0xC0, 0xC0, 0x30, 0xF0, 0x30, 0xF0, 
  0x0C, 0xFC, 0x0C, 0xFC, 0xFC, 0x3F, 0xFC, 0x3F, 0x0C, 0x0F, 0x0C, 0x0F, 
  0xC3, 0x00, 0xC3, 0x00, 0x3F, 0x00, 0x3F, 0x00, };
