#define usb_02_width 16
#define usb_02_height 16
static char usb_02_bits[] = {
  0x00, 0x03, 0x00, 0x03, 0x00, 0x33, 0x00, 0x33, 0x30, 0x33, 0x30, 0x33, 
  0x30, 0x33, 0x30, 0x33, 0x30, 0x0F, 0x30, 0x0F, 0xC0, 0x03, 0xC0, 0x03, 
  0x00, 0x03, 0x00, 0x03, 0x00, 0x03, 0x00, 0x03, };
