#define wifi_01_width 16
#define wifi_01_height 16
static char wifi_01_bits[] = {
  0x00, 0xC0, 0x00, 0xC0, 0x00, 0xCC, 0x00, 0xCC, 0xC0, 0xCC, 0xC0, 0xCC, 
  0xCF, 0xCC, 0xCF, 0xCC, 0xCF, 0xCC, 0xCF, 0xCC, 0xC0, 0xCC, 0xC0, 0xCC, 
  0x00, 0xCC, 0x00, 0xCC, 0x00, 0xC0, 0x00, 0xC0, };
