#define wifi_02_width 16
#define wifi_02_height 16
static char wifi_02_bits[] = {
  0x00, 0x30, 0x00, 0x30, 0x00, 0xC3, 0x00, 0xC3, 0x30, 0xCC, 0x30, 0xCC, 
  0xC3, 0xCC, 0xC3, 0xCC, 0xC3, 0xCC, 0xC3, 0xCC, 0x30, 0xCC, 0x30, 0xCC, 
  0x00, 0xC3, 0x00, 0xC3, 0x00, 0x30, 0x00, 0x30, };
