/* XPM */
static char *audio_muted[] = {
/* columns rows colors chars-per-pixel */
"16 16 30 1 ",
"  c black",
". c #1F0202",
"X c #250202",
"o c #270A08",
"O c gray38",
"+ c gray40",
"@ c #AC0605",
"# c #C51612",
"$ c #D5211C",
"% c #CD2E27",
"& c #DA2820",
"* c #D2342B",
"= c #E24035",
"- c #DA4E4A",
"; c #EA5649",
": c #EA7167",
"> c #ED766B",
", c #F08579",
"< c #B1B1B1",
"1 c gray75",
"2 c #C4C4C4",
"3 c #C8C8C8",
"4 c #CDCDCD",
"5 c gray82",
"6 c #D2D2D2",
"7 c #DFDFDF",
"8 c #E2E2E2",
"9 c #E7E7E7",
"0 c gray93",
"q c None",
/* pixels */
"qqqqqqqqqqqqqqqq",
"qqqqqqqqqqqqqqqq",
"qqqqqqqqqqqqqqqq",
"qqqqqqqqqqqqqqqq",
"qqqq5qqqqqqqqqqq",
"qqq48qqqq,qq,qqq",
"q9075qqq:;>>;:qq",
"q5444qqqo*==*oqq",
"q3333qqqq%&&%qqq",
"q<222qqq-$##$-qq",
"q  +1qqqX@X.@Xqq",
"qqqqOqqqqqqqqqqq",
"qqqqqqqqqqqqqqqq",
"qqqqqqqqqqqqqqqq",
"qqqqqqqqqqqqqqqq",
"qqqqqqqqqqqqqqqq"
};
