/* XPM */
static char *audio_on[] = {
/* columns rows colors chars-per-pixel */
"16 16 40 1 ",
"  c black",
". c #181818",
"X c gray29",
"o c #5D5D5D",
"O c gray38",
"+ c gray40",
"@ c DimGray",
"# c #898989",
"$ c #929292",
"% c gray58",
"& c #979797",
"* c gray62",
"= c #A4A4A4",
"- c #B1B1B1",
"; c gray71",
": c #B6B6B6",
"> c #BBBBBB",
", c gray",
"< c gray75",
"1 c #C1C1C1",
"2 c gray77",
"3 c #C8C8C8",
"4 c #CACACA",
"5 c #CBCBCB",
"6 c #CDCDCD",
"7 c gray82",
"8 c #D2D2D2",
"9 c gray83",
"0 c gray84",
"q c #D7D7D7",
"w c #D8D8D8",
"e c gray85",
"r c #DFDFDF",
"t c #E1E1E1",
"y c #E2E2E2",
"u c #E4E4E4",
"i c gray90",
"p c #E7E7E7",
"a c gray93",
"s c None",
/* pixels */
"ssssssssssssssss",
"ssssssssssssssss",
"ssssssssssssssss",
"ssssssssse0sssss",
"ssss7ssssypsssss",
"sss6yssp*%05ssss",
"spar7s:0es75ssss",
"s7666ss60s66ssss",
"s5255ss51s51ssss",
"s-221s>1$$2=ssss",
"s  +,sO:X,,#ssss",
"ssssOss.o5:sssss",
"sssssssss$@sssss",
"ssssssssssssssss",
"ssssssssssssssss",
"ssssssssssssssss"
};
