/* XPM */
static char *battery_discharging[] = {
/* columns rows colors chars-per-pixel */
"22 22 45 1 ",
"  c black",
". c #6B790A",
"X c #535353",
"o c gray34",
"O c #768F11",
"+ c #7B9411",
"@ c #879A0D",
"# c #809810",
"$ c #859C10",
"% c #8AA00F",
"& c #8FA40E",
"* c #859037",
"= c #A2C316",
"- c #A9C915",
"; c #B0CE15",
": c #B6D414",
"> c #BDD913",
", c #C4DF13",
"< c #9CAB60",
"1 c #939393",
"2 c gray61",
"3 c #A7A7A7",
"4 c #ACACAC",
"5 c gray68",
"6 c #B2B2B2",
"7 c gray72",
"8 c gray74",
"9 c #C2C2C2",
"0 c #C8C8C8",
"q c #CDCDCD",
"w c #D0D0D0",
"e c #D3D3D3",
"r c #D5D5D5",
"t c #D8D8D8",
"y c #DDDDDD",
"u c gray87",
"i c #DFDFDF",
"p c #E0E0E0",
"a c #E3E3E3",
"s c #E4E4E4",
"d c #EAEAEA",
"f c gray93",
"g c #F4F4F4",
"h c #F6F6F6",
"j c None",
/* pixels */
"jjjjjjjjjjjjjjjjjjjjjj",
"jjjjjjjjjjjjjjjjjjjjjj",
"jjjjjjjjjjjjjjjjjjjjjj",
"jjjjjjjjjjjjjjjjjjjjjj",
"jjjjjjjjjjjjjjjjjjjjjj",
"jjwggggghhgghhhhgwjjjj",
"jjdassssssaasssssdjjjj",
"jjuu*......jjjjXuujjjj",
"jjtt@,,,,,,jjjjjttjjjj",
"jjer&>>>>>>jjjjjrrfujj",
"jjqq%::::::jjjjjqqqrjj",
"jj00$;;;;;;jjjjj0000jj",
"jj99+------jjjjj9991jj",
"jj88+======jjjjj88 jjj",
"jj77<+OOOOOjjjj277jjjj",
"jj56wuuauauuauar65jjjj",
"jjX35555555555553ojjjj",
"jjj              jjjjj",
"jjjjjjjjjjjjjjjjjjjjjj",
"jjjjjjjjjjjjjjjjjjjjjj",
"jjjjjjjjjjjjjjjjjjjjjj",
"jjjjjjjjjjjjjjjjjjjjjj"
};
