/* XPM */
static char *battery_charged[] = {
/* columns rows colors chars-per-pixel */
"22 22 84 1 ",
"  c black",
". c #38550E",
"X c #3A5515",
"o c #3C5518",
"O c #3E551D",
"+ c #456912",
"@ c #486D12",
"# c #496F13",
"$ c #496D16",
"% c #4D7413",
"& c #507914",
"* c #517B14",
"= c #527C15",
"- c #537D15",
"; c #537F15",
": c #586D38",
"> c #585858",
", c #548015",
"< c #558216",
"1 c #588616",
"2 c #5B8A17",
"3 c #5E8F18",
"4 c #619419",
"5 c #649719",
"6 c #63941E",
"7 c #6AA11B",
"8 c #6BA21B",
"9 c #6DA51C",
"0 c #6FA81C",
"q c #71AC1D",
"w c #72AD1D",
"e c #73AF1D",
"r c #78B51E",
"t c #6A883F",
"y c #719E30",
"u c #729C37",
"i c #7FC121",
"p c #718059",
"a c #7EA14D",
"s c #7F8A6F",
"d c #80C120",
"f c #85CA22",
"g c #87AE4E",
"h c #83A750",
"j c #809169",
"k c #8F9D7B",
"l c #88A163",
"z c #98B36F",
"x c #959595",
"c c #A7A7A7",
"v c #ACACAC",
"b c gray68",
"n c #B0B0AF",
"m c #B2B2B2",
"M c gray72",
"N c gray74",
"B c #ACC18F",
"V c #B7C89E",
"C c #B5C4A0",
"Z c #BDCCA7",
"A c #C8D6B4",
"S c #C2C2C2",
"D c #C8C8C8",
"F c #CDCDCD",
"G c #D0D2CE",
"H c gray82",
"J c #D3D3D3",
"K c #D5D5D5",
"L c #D8D8D8",
"P c #DDDDDD",
"I c gray87",
"U c #DFDFDF",
"Y c #DDE6D1",
"T c #E0E0E0",
"R c gray89",
"E c #E6E7E3",
"W c #E4E4E4",
"Q c gray91",
"! c #E9E9E9",
"~ c gray93",
"^ c #F0F0EF",
"/ c #F4F4F4",
"( c #F6F6F6",
") c None",
/* pixels */
"))))))))))))))))))))))",
"))))))))))))))))))))))",
"))))))))))))))))))))))",
"))))))))))))))))))))))",
"))))))))))))))))))))))",
"))H///(((((/((((/H))))",
"))!RWYERWRRRRRRRW!))))",
"))IIp@@@@#@@@@#tII))))",
"))LL2ffd9gY4fff2LL))))",
"))JJ4d0yA^!4rw84JJ~T))",
"))FF36BEIKHuzVZhFFFK))",
"))DDaCk:XSSWGj$,DDDD))",
"))SS&#&3-MN:X=w1SSSx))",
"))NN1eew;jO+7ww,NN )))",
"))MMj1==-o%;;=;lMM))))",
"))vmJTTTTRTTTTTKmv))))",
"))>cvvvnvvvnvvvnc>))))",
")))              )))))",
"))))))))))))))))))))))",
"))))))))))))))))))))))",
"))))))))))))))))))))))",
"))))))))))))))))))))))"
};
