/* XPM */
static char *battery_charging[] = {
/* columns rows colors chars-per-pixel */
"22 22 59 1 ",
"  c black",
". c #0E0E0E",
"X c #4E4E4E",
"o c #535353",
"O c gray33",
"+ c gray34",
"@ c #5B5B5B",
"# c #6D6D6D",
"$ c gray43",
"% c gray45",
"& c #818181",
"* c gray51",
"= c #838383",
"- c gray52",
"; c #868686",
": c #888888",
"> c #8E8E8E",
", c gray56",
"< c gray60",
"1 c gray61",
"2 c #A0A0A0",
"3 c #A2A2A2",
"4 c #A7A7A7",
"5 c gray66",
"6 c #AAAAAA",
"7 c #ACACAC",
"8 c gray68",
"9 c gray69",
"0 c #B1B1B1",
"q c #B2B2B2",
"w c #B7B7B7",
"e c gray72",
"r c gray74",
"t c gray75",
"y c #C2C2C2",
"u c #C8C8C8",
"i c #CBCBCB",
"p c #CDCDCD",
"a c #CECECE",
"s c #D0D0D0",
"d c #D3D3D3",
"f c #D5D5D5",
"g c #D8D8D8",
"h c #DDDDDD",
"j c gray87",
"k c #DFDFDF",
"l c #E0E0E0",
"z c gray89",
"x c #E4E4E4",
"c c gray91",
"v c #EAEAEA",
"b c gray92",
"n c gray93",
"m c gray94",
"M c #F4F4F4",
"N c gray96",
"B c #F6F6F6",
"V c white",
"C c None",
/* pixels */
"CCCCCCCCCCCCCCCCCCCCCC",
"CCCCCCCCCCCCCCCCCCCCCC",
"CCCCCCCCCCCCCCCCCCCCCC",
"CCCCCCCCCCCCCCCCCCCCCC",
"CCCCCCCCCCCCCCCCCCCCCC",
"CCsMMMMMBBMMBBBBMsCCCC",
"CCvzxxzzxxzzzxxxxvCCCC",
"CCjj=@@@@@@CCCCOjjCCCC",
"CCgg;VVv0evCCCCCggCCCC",
"CCfs<Mt4jmvCCCCCfsnjCC",
"CCpp<1pvjfsC7isCpppsCC",
"CCui0s2$Xyyxs=CCuuiiCC",
"CCyy;%=6,00$.CCCyyy0CC",
"CCtt<VVV<,OCCCCCttCCCC",
"CCwwe<<<<@:CCCC1eeCCCC",
"CC60szjzjjjjzjzf07CCCC",
"CC@46777770777706OCCCC",
"CCC              CCCCC",
"CCCCCCCCCCCCCCCCCCCCCC",
"CCCCCCCCCCCCCCCCCCCCCC",
"CCCCCCCCCCCCCCCCCCCCCC",
"CCCCCCCCCCCCCCCCCCCCCC"
};
