/* XPM */
static char *pause[] = {
/* columns rows colors chars-per-pixel */
"16 16 12 1 ",
"  c black",
". c gray68",
"X c #B3B3B3",
"o c #B9B9B9",
"O c #BFBFBF",
"+ c #C5C5C5",
"@ c #CBCBCB",
"# c gray82",
"$ c gray84",
"% c #DCDCDC",
"& c #F3F3F3",
"* c None",
/* pixels */
"****************",
"****************",
"****************",
"****&&&**&&&****",
"****%%%**%%%****",
"****$$$**$$$****",
"****###**###****",
"****@@@**@@@****",
"****+++**+++****",
"****OOO**OOO****",
"****ooo**ooo****",
"****XXX**XXX****",
"****...**...****",
"****   **   ****",
"****************",
"****************"
};
