/* XPM */
static char *play[] = {
/* columns rows colors chars-per-pixel */
"16 16 33 1 ",
"  c #040404",
". c gray3",
"X c #1D1D1D",
"o c gray14",
"O c #494949",
"+ c gray47",
"@ c #797979",
"# c #959595",
"$ c gray62",
"% c #A2A2A2",
"& c #AEAEAE",
"* c #B1B1B1",
"= c gray70",
"- c #B9B9B9",
"; c gray75",
": c #C0C0C0",
"> c gray76",
", c #C5C5C5",
"< c #CBCBCB",
"1 c gray80",
"2 c #CDCDCD",
"3 c #CECECE",
"4 c gray82",
"5 c gray84",
"6 c #DADADA",
"7 c gray86",
"8 c gainsboro",
"9 c #DDDDDD",
"0 c #E7E7E7",
"q c gray91",
"w c #EAEAEA",
"e c #EFEFEF",
"r c None",
/* pixels */
"rrrrrrrrrrrrrrrr",
"rrrrrrrrrrrrrrrr",
"rrrr0rrrrrrrrrrr",
"rrrrwe1rrrrrrrrr",
"rrrr880w%rrrrrrr",
"rrrr5556w6rrrrrr",
"rrrr444446w;rrrr",
"rrrr1<<<<<181rrr",
"rrrr,,,,,,>@ rrr",
"rrrr;;;;;$Xrrrrr",
"rrrr---&Orrrrrrr",
"rrrr**@.rrrrrrrr",
"rrrr#orrrrrrrrrr",
"rrrrrrrrrrrrrrrr",
"rrrrrrrrrrrrrrrr",
"rrrrrrrrrrrrrrrr"
};
