#define random_width 15
#define random_height 15
static unsigned char random_bits[] = {
   0x00, 0x00, 0x00, 0x10, 0x0f, 0x3f, 0x9f, 0x7f, 0xd8, 0x31, 0xf0, 0x10,
   0x60, 0x00, 0x60, 0x00, 0xf0, 0x10, 0xf8, 0x31, 0x9f, 0x7f, 0x0f, 0x3f,
   0x00, 0x10, 0x00, 0x00, 0x00, 0x00 };
