#define random-small_width 12
#define random-small_height 12
static char random-small_bits[] = {
  0x00, 0x00, 0x01, 0x06, 0xCF, 0x0F, 0xEC, 0x06, 0x38, 0x00, 0x30, 0x00, 
  0x30, 0x00, 0x7C, 0x06, 0xCF, 0x0F, 0xC5, 0x07, 0x00, 0x00, 0x00, 0x00, 
  };
