/* XPM */
static char *time[] = {
/* columns rows colors chars-per-pixel */
"15 15 45 1 ",
"  c #848484",
". c #898989",
"X c gray54",
"o c #8E8E8E",
"O c gray57",
"+ c #9D9D9D",
"@ c gray62",
"# c #A0A0A0",
"$ c gray63",
"% c #A5A5A5",
"& c gray67",
"* c #ACACAC",
"= c gray68",
"- c #AEAEAE",
"; c #AFAFAF",
": c gray69",
"> c #B1B1B1",
", c #B2B2B2",
"< c gray70",
"1 c #B6B6B6",
"2 c gray72",
"3 c #B9B9B9",
"4 c #BCBCBC",
"5 c gray75",
"6 c #C0C0C0",
"7 c gray76",
"8 c #C3C3C3",
"9 c #C5C5C5",
"0 c gray79",
"q c gray80",
"w c #CDCDCD",
"e c gray81",
"r c gray82",
"t c #D2D2D2",
"y c LightGray",
"u c #D5D5D5",
"i c #D8D8D8",
"p c gray87",
"a c gray88",
"s c #E1E1E1",
"d c gray89",
"f c #E4E4E4",
"g c #EAEAEA",
"h c #F1F1F1",
"j c None",
/* pixels */
"jjjjjjjjjjjjjjj",
"jjjjjufhfujjjjj",
"jjj0gd7;9pg0jjj",
"jj5d>jjwjj>d7jj",
"jjp;jjjpjjj>pjj",
"j1yjjjjijjjjy1j",
"j9>jjjjyjjjj>9j",
"jw#jjj%7yuwj#wj",
"j2;jjjjo.oOj;1j",
"j@5jjjjjjjjj5@j",
"jj5&jjjjjjj;5jj",
"jj.2>jjjjj;2.jj",
"jjj >2;;>2> jjj",
"jjjjj.@&@.jjjjj",
"jjjjjjjjjjjjjjj"
};
